<?xml version="1.0" encoding="UTF-8" standalone="no"?>
<!-- Created with Inkscape (http://www.inkscape.org/) -->

<svg
   version="1.1"
   id="svg1"
   width="1700"
   height="1701"
   viewBox="0 0 1700 1701"
   sodipodi:docname="unclocked-studios-logo"
   inkscape:version="1.4.2 (ebf0e940, 2025-05-08)"
   xmlns:inkscape="http://www.inkscape.org/namespaces/inkscape"
   xmlns:sodipodi="http://sodipodi.sourceforge.net/DTD/sodipodi-0.dtd"
   xmlns="http://www.w3.org/2000/svg"
   xmlns:svg="http://www.w3.org/2000/svg">
  <defs
     id="defs1" />
  <sodipodi:namedview
     id="namedview1"
     pagecolor="#ffffff"
     bordercolor="#000000"
     borderopacity="0.25"
     inkscape:showpageshadow="2"
     inkscape:pageopacity="0.0"
     inkscape:pagecheckerboard="0"
     inkscape:deskcolor="#d1d1d1"
     inkscape:zoom="0.48912404"
     inkscape:cx="557.11839"
     inkscape:cy="692.05349"
     inkscape:window-width="2560"
     inkscape:window-height="1412"
     inkscape:window-x="0"
     inkscape:window-y="28"
     inkscape:window-maximized="0"
     inkscape:current-layer="g1" />
  <g
     inkscape:groupmode="layer"
     inkscape:label="Image"
     id="g1"
     transform="translate(20.239232,28.913188)">
    <path
       style="fill:#1f3f6b;fill-opacity:1;stroke-width:1.44566"
       d="m 1202.0787,976.6836 c -0.01,-247.98737 -0.4063,-320.39881 -1.7736,-323.53807 -5.8784,-13.49705 -14.4117,-20.65347 -28.1371,-23.59702 -7.5616,-1.62169 -15.2453,-0.56147 -23.5916,3.25522 -1.9878,0.909 -70.4658,68.37607 -152.17343,149.92684 L 847.84369,931.00467 761.46795,844.2651 c -51.64135,-51.85887 -87.30541,-88.77427 -88.6876,-91.79937 -7.45989,-16.32698 -9.00972,-23.53448 -8.15577,-37.92874 0.82445,-13.89686 3.86178,-23.52497 10.60955,-33.6314 C 677.8885,676.93002 811.98617,541.86027 973.22895,380.75058 1283.4011,70.834415 1268.7851,84.886653 1287.1243,78.963489 c 3.2311,-1.043542 34.0284,-1.56306 93.2451,-1.572945 94.8182,-0.01583 90.8149,-0.290174 107.6454,7.376994 5.7234,2.607317 18.9623,14.415518 24.9024,22.211262 3.7164,4.8774 8.9339,16.9331 10.9489,25.29904 2.5494,10.58447 2.9767,815.7971 0.4386,826.64292 -0.8726,3.72886 -3.6369,11.00148 -6.1429,16.1614 -4.1719,8.58996 -17.7004,22.53408 -160.3137,165.23834 l -155.7573,155.8567 z m 27.9535,158.0967 c -0.4708,-1.227 -1.1661,-1.9208 -1.545,-1.5418 -0.379,0.3789 -0.2602,1.3828 0.2639,2.2308 1.4255,2.3065 2.2586,1.8584 1.2811,-0.689 z m -3.3902,-67.1608 c 0,-0.7951 -0.2869,-1.4457 -0.6375,-1.4457 -0.3506,0 -1.0396,0.6506 -1.531,1.4457 -0.4914,0.7951 -0.2045,1.4456 0.6375,1.4456 0.8421,0 1.531,-0.6505 1.531,-1.4456 z m 43.3698,-14.4566 c 0,-0.7951 -0.2869,-1.4457 -0.6375,-1.4457 -0.3506,0 -1.0396,0.6506 -1.531,1.4457 -0.4914,0.7951 -0.2045,1.4456 0.6375,1.4456 0.8421,0 1.531,-0.6505 1.531,-1.4456 z m 59.272,-18.7936 c 0,-0.7951 -0.6889,-1.4456 -1.5309,-1.4456 -0.8421,0 -1.129,0.6505 -0.6376,1.4456 0.4915,0.7951 1.1804,1.4457 1.531,1.4457 0.3507,0 0.6375,-0.6506 0.6375,-1.4457 z m -98.3048,-98.30482 c 0,-0.79512 -0.6889,-1.44566 -1.531,-1.44566 -0.842,0 -1.1289,0.65054 -0.6375,1.44566 0.4914,0.79511 1.1804,1.44565 1.531,1.44565 0.3506,0 0.6375,-0.65054 0.6375,-1.44565 z m 38.7536,-83.16367 c -0.4451,-0.44511 -1.2535,0.35723 -1.7963,1.78297 -0.7846,2.06036 -0.6185,2.2264 0.8092,0.80928 0.988,-0.98065 1.4322,-2.14715 0.9871,-2.59225 z M 930.54687,834.55508 c -1.03735,-1.03734 -1.71069,-1.12269 -1.71069,-0.21684 0,1.92963 1.70965,3.63928 2.67447,2.67447 0.41081,-0.4108 -0.0229,-1.51673 -0.96378,-2.45763 z m 399.45983,0.31324 c -0.4914,-0.79512 -1.544,-1.44566 -2.3392,-1.44566 -0.7951,0 -1.0436,0.65054 -0.5522,1.44566 0.4915,0.79511 1.5441,1.44566 2.3392,1.44566 0.7951,0 1.0436,-0.65055 0.5522,-1.44566 z m 99.0276,-99.113 c 0,-1.23959 -0.6611,-1.84518 -1.4692,-1.34576 -0.8081,0.49942 -1.095,1.51363 -0.6375,2.25381 1.2393,2.00519 2.1067,1.6313 2.1067,-0.90805 z m 39.5844,-80.94669 c 0.4937,-1.28652 0.2514,-1.86681 -0.5681,-1.36034 -0.786,0.48577 -1.4291,1.49539 -1.4291,2.24358 0,2.07948 1.0362,1.62125 1.9972,-0.88324 z m -337.3902,-17.99566 c 0,-0.79511 -0.6889,-1.44565 -1.531,-1.44565 -0.842,0 -1.1289,0.65054 -0.6375,1.44565 0.4914,0.79512 1.1804,1.44566 1.531,1.44566 0.3506,0 0.6375,-0.65054 0.6375,-1.44566 z M 834.86832,539.38564 c 0,-0.3125 -1.00961,-0.95559 -2.24358,-1.42911 -1.28652,-0.49368 -1.86681,-0.25133 -1.36034,0.56816 0.84898,1.37368 3.60392,2.0318 3.60392,0.86095 z m 594.16598,-2.32317 c 0,-0.79511 -0.6889,-1.44565 -1.5309,-1.44565 -0.8421,0 -1.129,0.65054 -0.6376,1.44565 0.4915,0.79512 1.1804,1.44566 1.531,1.44566 0.3507,0 0.6375,-0.65054 0.6375,-1.44566 z m -497.3068,-99.7505 c 0,-0.79511 -0.68895,-1.44565 -1.53099,-1.44565 -0.84203,0 -1.12891,0.65054 -0.6375,1.44565 0.49141,0.79512 1.18035,1.44566 1.53098,1.44566 0.35063,0 0.63751,-0.65054 0.63751,-1.44566 z m 397.5563,0 c 0,-0.79511 -0.6889,-1.44565 -1.5309,-1.44565 -0.8421,0 -1.129,0.65054 -0.6376,1.44565 0.4915,0.79512 1.1804,1.44566 1.531,1.44566 0.3507,0 0.6375,-0.65054 0.6375,-1.44566 z m -59.272,-21.68489 c 0,-0.79511 -0.2869,-1.44566 -0.6375,-1.44566 -0.3506,0 -1.0396,0.65055 -1.531,1.44566 -0.4914,0.79512 -0.2045,1.44566 0.6375,1.44566 0.8421,0 1.531,-0.65054 1.531,-1.44566 z m -198.0553,-36.77899 c 0,-0.35063 -0.6506,-1.03957 -1.4457,-1.53098 -0.7951,-0.49141 -1.4457,-0.20453 -1.4457,0.63751 0,0.84203 0.6506,1.53098 1.4457,1.53098 0.7951,0 1.4457,-0.28688 1.4457,-0.63751 z m -40.4785,-40.47846 c 0,-0.35063 -0.6505,-1.03958 -1.4457,-1.53098 -0.7951,-0.49141 -1.4456,-0.20454 -1.4456,0.6375 0,0.84204 0.6505,1.53098 1.4456,1.53098 0.7952,0 1.4457,-0.28687 1.4457,-0.6375 z m 199.501,0 c 0,-0.35063 -0.6505,-1.03958 -1.4457,-1.53098 -0.7951,-0.49141 -1.4456,-0.20454 -1.4456,0.6375 0,0.84204 0.6505,1.53098 1.4456,1.53098 0.7952,0 1.4457,-0.28687 1.4457,-0.6375 z M 1129.9593,238.28081 c -1.7042,-2.93065 -2.1157,-1.99262 -0.7207,1.64276 0.4958,1.29199 1.206,2.04454 1.5782,1.67233 0.3722,-0.37221 -0.014,-1.86401 -0.8575,-3.31509 z m 199.3245,-0.46984 c 0,-0.79511 -0.6889,-1.44565 -1.5309,-1.44565 -0.8421,0 -1.129,0.65054 -0.6376,1.44565 0.4915,0.79512 1.1804,1.44566 1.531,1.44566 0.3507,0 0.6375,-0.65054 0.6375,-1.44566 z m -59.272,-59.27203 c 0,-0.79511 -0.6889,-1.44566 -1.531,-1.44566 -0.842,0 -1.1289,0.65055 -0.6375,1.44566 0.4914,0.79511 1.1804,1.44566 1.531,1.44566 0.3506,0 0.6375,-0.65055 0.6375,-1.44566 z m 56.3807,-4.97449 c 0,-0.35063 -0.6505,-1.03957 -1.4456,-1.53098 -0.7952,-0.49141 -1.4457,-0.20453 -1.4457,0.63751 0,0.84204 0.6505,1.53098 1.4457,1.53098 0.7951,0 1.4456,-0.28688 1.4456,-0.63751 z m -97.3173,-35.77504 c -0.4615,-1.15325 -0.804,-0.81069 -0.8734,0.87342 -0.063,1.52397 0.2789,2.37781 0.7593,1.89743 0.4804,-0.48038 0.5317,-1.72726 0.1141,-2.77085 z"
       id="path2"
       inkscape:label="right side" />
    <path
       style="fill:#5990c2;fill-opacity:1;stroke-width:1.44566"
       d="M 848.53968,1269.6504 849.44181,932.45033 996.4792,785.25594 c 107.3826,-107.4972 148.8764,-148.14252 153.8562,-150.70999 17.1355,-8.8346 37.9649,-1.53173 46.9069,16.44572 2.5488,5.12416 2.67,18.17987 3.029,326.33726 l 0.3741,320.99957 -142.7715,142.4004 c -88.97296,88.7417 -145.88344,144.4339 -151.03004,147.797 -15.51368,10.1373 -39.69393,18.3245 -54.12016,18.3245 h -5.08615 z"
       id="path4"
       inkscape:label="middle piece" />
    <path
       style="fill:#1f3f6b;fill-opacity:1;stroke-width:1.44566"
       d="m 826.19436,1604.6471 c -18.8744,-4.3374 -32.9534,-11.3195 -46.57146,-23.0961 -17.90514,-15.4841 -216.70416,-215.4714 -215.50271,-216.7909 0.62296,-0.6842 0.43965,-0.8503 -0.40733,-0.3691 -2.0012,1.1368 -54.58269,-51.4733 -53.08674,-53.1157 0.62552,-0.6867 0.44442,-0.855 -0.40243,-0.3739 -1.85527,1.054 -56.10671,-52.8757 -54.65328,-54.3292 0.55937,-0.5593 0.10095,-1.017 -1.01869,-1.017 -2.80299,0 -171.96522,-169.3537 -170.89382,-171.0872 0.4735,-0.7661 0.22095,-0.9975 -0.56122,-0.5141 -1.49946,0.9267 -97.63135,-94.9009 -102.67614,-102.35115 -1.61518,-2.38534 -4.4883,-8.56554 -6.38471,-13.73377 l -3.44802,-9.39678 V 545.0136 c 0,-343.65392 0.32952,-414.31285 1.95179,-418.5184 9.48848,-24.59796 25.51673,-40.080825 49.301,-47.623497 6.51861,-2.067234 110.47839,-2.063033 121.50351,0.0049 26.72776,5.013233 35.80225,7.747355 56.72638,17.091523 3.76812,1.682745 7.13985,3.059534 7.49273,3.059534 1.37948,0 23.70733,14.11912 31.91724,20.18301 13.06443,9.64947 37.08257,34.17262 44.65557,45.59449 3.69026,5.56579 7.26012,10.80894 7.933,11.65145 4.47066,5.59764 19.30914,36.84343 21.92825,46.17493 6.46323,23.02745 8.81023,36.35372 9.07976,51.55486 0.13842,7.80689 0.73958,14.20071 1.33591,14.20849 1.95501,0.0255 1.27106,38.26744 -0.72282,40.41556 -1.33955,1.44319 -1.35196,1.6906 -0.048,0.95629 1.3711,-0.77209 1.76189,14.46417 1.77163,69.07091 0.01,53.95724 -0.39472,70.2264 -1.75912,70.77886 -1.35216,0.54752 -1.33575,0.74439 0.0693,0.83149 1.44933,0.0899 1.81725,9.19384 1.72965,42.79856 -0.0853,32.7188 -0.51511,42.44211 -1.84093,41.64661 -1.25349,-0.7521 -1.23536,-0.427 0.0658,1.18093 1.39886,1.72863 1.79331,29.34418 1.78569,125.01698 -0.009,117.82728 0.35658,129.82298 4.31661,141.48912 2.92869,8.62786 3.30174,9.39679 4.55893,9.39679 0.70238,0 1.27706,0.90771 1.27706,2.01715 0,1.10943 6.01755,8.37549 13.37235,16.14681 7.35479,7.77131 13.19359,14.7185 12.97511,15.43821 -0.21847,0.71972 0.14783,0.9717 0.81402,0.55997 1.50749,-0.93168 155.36432,152.82807 154.31081,154.21347 -0.42067,0.5532 -0.31048,0.6598 0.24488,0.237 0.55537,-0.4229 29.82939,28.0385 65.05339,63.2476 l 64.04364,64.0164 10e-4,229.4984 10e-4,229.4984 -6.14405,-0.188 c -3.37923,-0.1034 -9.72206,-1.0103 -14.09518,-2.0153 z m -16.38414,-8.5755 c 0,-1.1577 -0.54212,-1.7699 -1.20472,-1.3604 -0.66259,0.4096 -1.20471,-0.378 -1.20471,-1.7501 0,-1.3722 -0.38468,-2.1101 -0.85484,-1.6399 -1.10431,1.1043 0.7052,6.8553 2.15697,6.8553 0.60901,0 1.1073,-0.9472 1.1073,-2.1049 z m -6.19481,-13.1496 c 0.49368,-1.2866 0.25133,-1.8669 -0.56815,-1.3603 -0.78601,0.4857 -1.42911,1.4954 -1.42911,2.2435 0,2.0794 1.0362,1.6213 1.99726,-0.8832 z m 6.6767,-44.0175 c 0,-0.7952 -0.28688,-1.4457 -0.63751,-1.4457 -0.35063,0 -1.03958,0.6505 -1.53098,1.4457 -0.49141,0.7951 -0.20454,1.4456 0.6375,1.4456 0.84204,0 1.53099,-0.6505 1.53099,-1.4456 z m -28.91319,-56.4207 c 0,-0.7232 -0.97209,-0.942 -2.16019,-0.486 -1.1881,0.4559 -1.79369,1.4219 -1.34577,2.1467 0.93688,1.5159 3.50596,0.299 3.50596,-1.6607 z m -27.46753,-13.5168 c 0,-0.3002 -1.13846,-1.4387 -2.52991,-2.5299 -2.2929,-1.7982 -2.34403,-1.7471 -0.54582,0.5458 1.88857,2.4081 3.07573,3.1739 3.07573,1.9841 z m -85.29391,-9.5738 c 0,-0.7951 -0.28687,-1.4457 -0.6375,-1.4457 -0.35063,0 -1.03958,0.6506 -1.53099,1.4457 -0.49141,0.7951 -0.20453,1.4456 0.63751,1.4456 0.84204,0 1.53098,-0.6505 1.53098,-1.4456 z m 170.58781,-2.8913 c 0,-0.7951 -0.68894,-1.4457 -1.53098,-1.4457 -0.84204,0 -1.12891,0.6506 -0.63751,1.4457 0.49141,0.7951 1.18036,1.4456 1.53099,1.4456 0.35063,0 0.6375,-0.6505 0.6375,-1.4456 z m -170.7536,-3.2011 c -0.75988,-1.4199 -1.72237,-2.5816 -2.13888,-2.5816 -0.41651,0 -0.35523,0.6506 0.13618,1.4457 0.49141,0.7951 0.20453,1.4456 -0.6375,1.4456 -0.84204,0 -1.53099,0.5112 -1.53099,1.1359 0,0.6248 1.24939,1.1359 2.77639,1.1359 2.21737,0 2.4982,-0.5198 1.3948,-2.5815 z m 138.9491,-1.0154 c 0,-1.524 0.66681,-3.1016 1.4818,-3.5058 0.81499,-0.4041 0.71449,-0.5875 -0.22336,-0.4074 -2.12626,0.4083 -4.62145,6.684 -2.65752,6.684 0.76949,0 1.39908,-1.2469 1.39908,-2.7708 z m 2.21596,-24.4083 c -0.40987,-0.4099 0.0623,-1.7809 1.04932,-3.0467 1.54821,-1.9856 1.47863,-2.0552 -0.50698,-0.507 -1.26582,0.987 -2.87075,1.3123 -3.56648,0.7228 -0.69574,-0.5894 -0.48874,-0.048 0.46002,1.2035 1.33963,1.7669 1.32899,2.7202 -0.0476,4.2673 -1.50045,1.6861 -1.37878,1.6936 0.79216,0.049 1.41066,-1.0689 2.22948,-2.2787 1.81961,-2.6886 z m -103.41212,-61.6436 c 0,-0.3507 -0.65055,-1.0396 -1.44566,-1.531 -0.79511,-0.4914 -1.44566,-0.2045 -1.44566,0.6375 0,0.842 0.65055,1.531 1.44566,1.531 0.79511,0 1.44566,-0.2869 1.44566,-0.6375 z m -71.56014,-9.4821 c -0.49141,-0.7951 -1.66827,-1.4357 -2.61523,-1.4236 -1.03453,0.013 -0.85622,0.5815 0.44674,1.4236 2.77728,1.7948 3.27774,1.7948 2.16849,0 z m -103.76791,-38.259 c 0.61935,-0.6806 0.36846,-0.8038 -0.55751,-0.2738 -0.92598,0.53 -1.94505,0.1793 -2.2646,-0.7794 -0.37967,-1.139 -0.8887,-0.9411 -1.46904,0.5713 -0.93661,2.4407 2.18905,2.7918 4.29115,0.4819 z m -5.8375,-6.8275 c -0.46148,-1.1533 -0.80404,-0.8107 -0.87341,0.8734 -0.0628,1.5239 0.2789,2.3778 0.75929,1.8974 0.48038,-0.4804 0.53173,-1.7273 0.11412,-2.7708 z m 140.68708,2.5248 c 0,-0.3506 -0.65054,-1.0395 -1.44566,-1.5309 -0.79511,-0.4915 -1.44566,-0.2046 -1.44566,0.6375 0,0.842 0.65055,1.5309 1.44566,1.5309 0.79512,0 1.44566,-0.2868 1.44566,-0.6375 z m 1.99727,-4.4974 c 0.49368,-1.2865 0.25133,-1.8668 -0.56816,-1.3603 -0.78601,0.4858 -1.42911,1.4954 -1.42911,2.2436 0,2.0795 1.03621,1.6212 1.99727,-0.8833 z m -4.88859,-7.876 c -1.7855,-1.1539 -1.80678,-1.4053 -0.12046,-1.4235 1.1264,-0.012 1.65759,-0.4126 1.18042,-0.8897 -1.2985,-1.2986 -4.12804,0.8576 -3.1667,2.4131 0.45745,0.7402 1.60652,1.3358 2.55348,1.3236 1.03453,-0.013 0.85622,-0.5815 -0.44674,-1.4235 z m -78.0656,-10.7571 c 0,-0.3506 -0.65055,-1.0396 -1.44566,-1.531 -0.79512,-0.4914 -1.44566,-0.2045 -1.44566,0.6375 0,0.842 0.65054,1.531 1.44566,1.531 0.79511,0 1.44566,-0.2869 1.44566,-0.6375 z m 124.98779,-18.256 c -1.35944,-2.1996 -3.53148,-1.5277 -2.63272,0.8145 0.45592,1.1881 1.42194,1.7936 2.14671,1.3457 0.72476,-0.4479 0.94348,-1.42 0.48601,-2.1602 z m -181.36851,-12.911 c 0,-0.7951 -0.68895,-1.4457 -1.53098,-1.4457 -0.84204,0 -1.12892,0.6506 -0.63751,1.4457 0.49141,0.7951 1.18035,1.4456 1.53098,1.4456 0.35063,0 0.63751,-0.6505 0.63751,-1.4456 z m 252.9904,-58.7048 c 0,-1.1965 -2.80708,-1.8731 -3.45066,-0.8318 -0.41752,0.6756 0.18806,1.2283 1.34576,1.2283 1.15769,0 2.1049,-0.1784 2.1049,-0.3965 z m -11.56528,-19.3608 c 0,-0.7951 -0.68894,-1.4457 -1.53098,-1.4457 -0.84204,0 -1.12892,0.6506 -0.63751,1.4457 0.49141,0.7951 1.18035,1.4456 1.53098,1.4456 0.35064,0 0.63751,-0.6505 0.63751,-1.4456 z m -382.87583,-7.1767 c -0.45045,-2.351 -0.94543,-2.888 -1.38008,-1.4973 -0.37275,1.1927 -1.20487,2.8423 -1.84919,3.6658 -0.71161,0.9095 -0.16986,1.4973 1.38009,1.4973 1.95211,0 2.38653,-0.8612 1.84918,-3.6658 z m 142.59196,2.2627 c -1.02525,-1.1125 -2.09186,-1.8063 -2.37026,-1.5419 -0.85748,0.8146 1.31575,3.5646 2.81698,3.5646 0.77954,0 0.57851,-0.9102 -0.44672,-2.0227 z m -2.26278,-4.8567 c -2.307,-0.7689 -2.28199,-4.2383 0.0373,-5.1741 1.42168,-0.5737 1.41405,-0.7536 -0.0358,-0.8433 -1.01356,-0.063 -2.47729,1.5545 -3.25273,3.5941 -1.86113,4.8951 -1.89542,4.822 1.80557,3.8541 1.76849,-0.4624 2.41904,-1.1063 1.44566,-1.4308 z m 140.95896,0.2233 c -0.48037,-0.4804 -1.72726,-0.5317 -2.77085,-0.1141 -1.15324,0.4615 -0.81069,0.804 0.87343,0.8734 1.52395,0.063 2.3778,-0.2789 1.89742,-0.7593 z m -281.60644,-6.964 c 1.39859,-1.6852 1.17335,-1.9156 -1.25239,-1.2813 -1.62673,0.4254 -2.60134,1.3501 -2.1658,2.0548 1.05935,1.714 1.42182,1.632 3.41819,-0.7735 z m 276.88853,-6.4025 c -0.81457,-0.8575 -3.56451,1.3157 -3.56451,2.817 0,0.7795 0.9102,0.5785 2.02268,-0.4468 1.11247,-1.0252 1.8063,-2.0918 1.54183,-2.3702 z m -135.85259,-42.1242 c 0.50648,-0.8195 -0.0738,-1.0619 -1.36033,-0.5682 -2.50449,0.9611 -2.96272,1.9973 -0.88324,1.9973 0.74818,0 1.7578,-0.6431 2.24357,-1.4291 z m -42.63671,-0.5848 c 0,-0.3124 -1.00961,-0.9555 -2.24358,-1.4291 -1.28652,-0.4936 -1.86681,-0.2513 -1.36034,0.5682 0.84898,1.3737 3.60392,2.0318 3.60392,0.8609 z m 4.33697,-0.8775 c 0,-0.7951 -0.68894,-1.4456 -1.53098,-1.4456 -0.84204,0 -1.12891,0.6505 -0.63751,1.4456 0.49141,0.7952 1.18036,1.4457 1.53099,1.4457 0.35063,0 0.6375,-0.6505 0.6375,-1.4457 z m 10.67123,-54.2873 c 0.49367,-1.2865 0.25132,-1.8668 -0.56816,-1.3603 -0.78601,0.4858 -1.42911,1.4954 -1.42911,2.2436 0,2.0794 1.03621,1.6212 1.99727,-0.8833 z m 197.50373,0.075 c 0,-1.1927 -0.25568,-2.1685 -0.56816,-2.1685 -0.31249,0 -0.94261,0.9758 -1.40029,2.1685 -0.45767,1.1927 -0.20199,2.1685 0.56816,2.1685 0.77016,0 1.40029,-0.9758 1.40029,-2.1685 z m -100.48356,-3.5976 c 0.50647,-0.8195 -0.0738,-1.0618 -1.36034,-0.5681 -2.50449,0.961 -2.96272,1.9972 -0.88324,1.9972 0.74819,0 1.75781,-0.6431 2.24358,-1.4291 z m -265.9911,-13.0275 c -0.49141,-0.7951 -1.54401,-1.4456 -2.33912,-1.4456 -0.79512,0 -1.04361,0.6505 -0.5522,1.4456 0.49141,0.7951 1.54401,1.4457 2.33912,1.4457 0.79511,0 1.04361,-0.6506 0.5522,-1.4457 z m 139.50613,0 c 0,-0.7951 -0.28688,-1.4456 -0.63751,-1.4456 -0.35063,0 -1.03957,0.6505 -1.53098,1.4456 -0.49141,0.7951 -0.20453,1.4457 0.63751,1.4457 0.84204,0 1.53098,-0.6506 1.53098,-1.4457 z m 198.82305,-8.6013 c -0.53212,-0.861 -1.64255,-1.1482 -2.4676,-0.6383 -0.9713,0.6003 -0.82343,1.3453 0.41944,2.1134 2.31994,1.4338 3.37594,0.6733 2.04816,-1.4751 z m -425.32846,-8.8617 c -0.74577,-0.7458 -1.39802,0.3709 -1.5591,2.6692 -0.24301,3.4672 -0.0859,3.6243 1.28215,1.2821 0.90686,-1.5525 1.02272,-3.2056 0.27695,-3.9513 z m 281.44047,5.2602 c 0,-0.3506 -0.65055,-1.0395 -1.44566,-1.5309 -0.79511,-0.4914 -1.44566,-0.2046 -1.44566,0.6375 0,0.842 0.65055,1.531 1.44566,1.531 0.79511,0 1.44566,-0.2869 1.44566,-0.6376 z m -140.22896,-1.3763 c 0,-0.3125 -1.00961,-0.9555 -2.24358,-1.4291 -1.28652,-0.4936 -1.86681,-0.2513 -1.36034,0.5682 0.84898,1.3737 3.60392,2.0318 3.60392,0.8609 z m 140.95179,-3.7688 c 0.49141,-0.7951 -0.15914,-1.4456 -1.44566,-1.4456 -1.28652,0 -1.93707,0.6505 -1.44566,1.4456 0.49141,0.7951 1.14196,1.4457 1.44566,1.4457 0.3037,0 0.95425,-0.6506 1.44566,-1.4457 z m -18.99361,-2.1685 c -0.45768,-1.1926 -1.0878,-2.1685 -1.40029,-2.1685 -0.31248,0 -0.56816,0.9759 -0.56816,2.1685 0,1.1927 0.63013,2.1685 1.40029,2.1685 0.77015,0 1.02583,-0.9758 0.56816,-2.1685 z m -125.57233,-3.6141 c 0.49141,-0.7951 0.24291,-1.4457 -0.5522,-1.4457 -0.79511,0 -1.84771,0.6506 -2.33912,1.4457 -0.49141,0.7951 -0.24292,1.4456 0.5522,1.4456 0.79511,0 1.84771,-0.6505 2.33912,-1.4456 z M 286.9634,992.44519 c 0,-0.79511 -0.28688,-1.44566 -0.63752,-1.44566 -0.35063,0 -1.03957,0.65055 -1.53097,1.44566 -0.49141,0.79512 -0.20453,1.44566 0.63751,1.44566 0.84203,0 1.53098,-0.65054 1.53098,-1.44566 z m 240.967,-13.28199 c -0.46148,-1.15325 -0.80404,-0.8107 -0.87341,0.87342 -0.0628,1.52396 0.2789,2.37781 0.75929,1.89743 0.48038,-0.48038 0.53173,-1.72728 0.11412,-2.77085 z m -141.2165,-1.96678 c 0,-1.70789 -2.73337,-1.70463 -3.38905,0.004 -0.5341,1.39184 -0.10321,1.8189 1.29418,1.28268 1.15218,-0.44213 2.09487,-1.02114 2.09487,-1.28671 z m 283.34924,-0.89443 c 0,-0.66259 -0.61215,-1.20471 -1.36033,-1.20471 -0.74819,0 -1.6954,0.54212 -2.1049,1.20471 -0.40951,0.6626 0.20264,1.20473 1.36034,1.20473 1.15768,0 2.10489,-0.54213 2.10489,-1.20473 z m -420.68689,-0.39656 c 0,-0.35063 -0.65055,-1.03957 -1.44566,-1.53098 -0.79511,-0.49141 -1.44566,-0.20453 -1.44566,0.63751 0,0.84204 0.65055,1.53098 1.44566,1.53098 0.79511,0 1.44566,-0.28688 1.44566,-0.63751 z m 287.68622,-5.14513 c 0,-0.79511 -0.28687,-1.44566 -0.6375,-1.44566 -0.35063,0 -1.03958,0.65055 -1.53098,1.44566 -0.49141,0.79511 -0.20454,1.44566 0.6375,1.44566 0.84204,0 1.53098,-0.65055 1.53098,-1.44566 z M 185.76724,932.53565 c 0,-0.35063 -0.65055,-1.03957 -1.44566,-1.53098 -0.79512,-0.49141 -1.44566,-0.20453 -1.44566,0.6375 0,0.84204 0.65054,1.53099 1.44566,1.53099 0.79511,0 1.44566,-0.28688 1.44566,-0.63751 z m 426.16511,-10.05913 c -1.02524,-1.11248 -2.09185,-1.80631 -2.37026,-1.54184 -0.85748,0.81457 1.31575,3.56452 2.81699,3.56452 0.77954,0 0.57851,-0.9102 -0.44673,-2.02268 z M 471.28497,904.25997 c -0.49141,-0.79511 -1.54401,-1.44566 -2.33912,-1.44566 -0.79511,0 -1.04361,0.65055 -0.5522,1.44566 0.49141,0.79511 1.54401,1.44566 2.33912,1.44566 0.79512,0 1.04361,-0.65055 0.5522,-1.44566 z m 57.82638,-13.01094 c 0.49141,-0.79511 0.20453,-1.44566 -0.63751,-1.44566 -0.84204,0 -1.53098,0.65055 -1.53098,1.44566 0,0.79512 0.28688,1.44566 0.63751,1.44566 0.35063,0 1.03957,-0.65054 1.53098,-1.44566 z m 2.5299,-55.89249 c -0.99389,-0.40104 -2.62026,-0.40104 -3.61415,0 -0.99389,0.40104 -0.1807,0.72918 1.80708,0.72918 1.98778,0 2.80096,-0.32814 1.80707,-0.72918 z M 254.87969,828.3246 c -0.4451,-0.44511 -1.25346,0.35723 -1.79635,1.78297 -0.78453,2.06036 -0.61848,2.2264 0.80928,0.80928 0.98799,-0.98065 1.43217,-2.14715 0.98707,-2.59225 z m 29.37178,-25.64631 c -1.42776,-1.41712 -1.59382,-1.25107 -0.80928,0.80928 0.54289,1.42574 1.35125,2.22808 1.79635,1.78298 0.4451,-0.4451 9.1e-4,-1.61161 -0.98707,-2.59226 z m 132.82127,-23.38254 c 0,-0.35063 -0.65054,-1.03957 -1.44566,-1.53098 -0.79511,-0.49141 -1.44566,-0.20453 -1.44566,0.63751 0,0.84203 0.65055,1.53098 1.44566,1.53098 0.79512,0 1.44566,-0.28688 1.44566,-0.63751 z M 190.10421,763.3935 c 0,-0.35063 -0.65054,-1.03958 -1.44566,-1.53099 -0.79511,-0.4914 -1.44565,-0.20453 -1.44565,0.63751 0,0.84204 0.65054,1.53098 1.44565,1.53098 0.79512,0 1.44566,-0.28687 1.44566,-0.6375 z m 45.36705,-8.83437 c 0.49368,-1.28652 0.25132,-1.86681 -0.56816,-1.36034 -0.78601,0.48577 -1.4291,1.49539 -1.4291,2.24358 0,2.07948 1.0362,1.62125 1.99726,-0.88324 z m 151.29518,-2.75291 c -0.96091,-1.15783 -1.24096,-2.94683 -0.62232,-3.97556 0.83592,-1.39005 0.49661,-1.36085 -1.32121,0.11368 -2.53847,2.05911 -3.4691,5.32434 -1.10023,3.8603 0.74018,-0.45746 1.7544,-0.17057 2.25381,0.63751 0.49942,0.80808 1.27458,1.46924 1.72256,1.46924 0.448,0 0.0283,-0.94733 -0.93261,-2.10517 z m -141.32327,-3.07963 c -1.41481,-1.07335 -3.22293,-1.95245 -4.01805,-1.95356 -0.79511,-10e-4 -0.29352,0.66873 1.11465,1.48853 1.40817,0.81981 2.18757,2.09366 1.73199,2.83081 -0.45557,0.73712 0.20041,0.94549 1.45774,0.463 2.02644,-0.77762 1.99393,-1.09888 -0.28633,-2.82878 z m 136.93375,-10.71746 c 0,-0.79511 -0.28688,-1.44565 -0.63751,-1.44565 -0.35063,0 -1.03957,0.65054 -1.53098,1.44565 -0.49141,0.79512 -0.20453,1.44566 0.6375,1.44566 0.84204,0 1.53099,-0.65054 1.53099,-1.44566 z m 61.70524,-14.72765 c -0.46149,-1.15325 -0.80405,-0.8107 -0.87341,0.87342 -0.0628,1.52396 0.27889,2.37781 0.75929,1.89743 0.48037,-0.48038 0.53172,-1.72726 0.11412,-2.77085 z m -190.18954,-8.78841 c -1.42776,-1.41712 -1.59381,-1.25107 -0.80928,0.80928 0.54289,1.42574 1.35125,2.22808 1.79635,1.78297 0.4451,-0.4451 9.2e-4,-1.6116 -0.98707,-2.59225 z m 77.01447,-21.54033 c -0.4095,-0.66258 -1.35671,-1.20471 -2.10489,-1.20471 -0.74819,0 -1.36034,0.54213 -1.36034,1.20471 0,0.66261 0.94721,1.20473 2.10489,1.20473 1.1577,0 1.76985,-0.54212 1.36034,-1.20473 z M 219.0174,636.81297 c 0,-0.79511 -0.68894,-1.44565 -1.53098,-1.44565 -0.84203,0 -1.12891,0.65054 -0.63751,1.44565 0.49141,0.79512 1.18035,1.44566 1.53098,1.44566 0.35063,0 0.63751,-0.65054 0.63751,-1.44566 z m 28.54155,-26.36505 c 0.18373,-2.43897 -0.0727,-2.72262 -1.04262,-1.15327 -0.70746,1.14468 -0.96554,2.6002 -0.57352,3.2345 1.09057,1.76459 1.35179,1.4282 1.61614,-2.08123 z m 139.50735,-0.70103 c -0.99885,-0.35661 -1.39131,-1.40602 -0.87216,-2.33199 0.55691,-0.9933 0.121,-0.918 -1.06316,0.18367 -1.71011,1.591 -1.69421,2.06063 0.10748,3.17413 1.16298,0.71877 2.45864,0.92788 2.87923,0.46471 0.42058,-0.46318 -0.0525,-1.13392 -1.05139,-1.49052 z M 242.14795,597.78017 c 0,-0.79511 -0.28688,-1.44566 -0.63751,-1.44566 -0.35063,0 -1.03957,0.65055 -1.53098,1.44566 -0.4914,0.79511 -0.20452,1.44566 0.63752,1.44566 0.84203,0 1.53097,-0.65055 1.53097,-1.44566 z m 258.77304,-14.45659 c 0,-0.79512 -0.28688,-1.44566 -0.63751,-1.44566 -0.35063,0 -1.03957,0.65054 -1.53098,1.44566 -0.49141,0.79511 -0.20453,1.44566 0.63751,1.44566 0.84204,0 1.53098,-0.65055 1.53098,-1.44566 z m -252.9904,-29.58516 c 0,-0.36959 -1.46373,-1.38129 -3.25273,-2.24824 -3.12353,-1.51366 -3.14127,-1.48697 -0.44652,0.67196 2.94952,2.36306 3.69925,2.68252 3.69925,1.57628 z m 236.35508,-0.75714 c 0.50647,-0.81949 -0.0738,-1.06184 -1.36034,-0.56816 -2.50449,0.96106 -2.96272,1.99727 -0.88324,1.99727 0.74819,0 1.75781,-0.6431 2.24358,-1.42911 z m -13.72353,-70.85386 c 0,-0.79512 -0.68894,-1.44566 -1.53098,-1.44566 -0.84204,0 -1.12892,0.65054 -0.63751,1.44566 0.49141,0.79511 1.18035,1.44566 1.53098,1.44566 0.35063,0 0.63751,-0.65055 0.63751,-1.44566 z m -82.40259,-10.92777 c 0,-1.23036 -1.33159,-2.03644 -3.25273,-1.96903 -1.789,0.0628 -2.43955,0.44225 -1.44566,0.84329 0.99389,0.40104 1.80708,1.68917 1.80708,2.86251 0,1.17334 0.65054,1.73128 1.44566,1.23987 0.79511,-0.49141 1.44565,-1.8309 1.44565,-2.97664 z M 240.70229,457.38058 c 0,-0.79512 -0.65054,-1.04361 -1.44566,-0.5522 -0.79511,0.49141 -1.44566,1.544 -1.44566,2.33912 0,0.79511 0.65055,1.0436 1.44566,0.5522 0.79512,-0.49141 1.44566,-1.54401 1.44566,-2.33912 z m 282.62642,1.61629 c -0.49141,-0.79512 -1.66826,-1.4357 -2.61523,-1.42353 -1.03452,0.0133 -0.85622,0.58149 0.44674,1.42353 2.77729,1.79483 3.27774,1.79483 2.16849,0 z m -142.39745,-1.29099 c 0,-0.71005 -1.06784,-1.70076 -2.37297,-2.20158 -1.98413,-0.76139 -2.07356,-0.54984 -0.54582,1.29099 2.08194,2.50856 2.91879,2.76965 2.91879,0.91059 z m -76.61995,-13.73377 c 0,-0.31249 -1.00961,-0.95558 -2.24358,-1.4291 -1.28652,-0.49368 -1.86681,-0.25133 -1.36034,0.56816 0.84898,1.37368 3.60392,2.0318 3.60392,0.86094 z m 83.84824,-31.59037 c 0,-0.80644 -0.95884,-0.64988 -2.16848,0.35402 -1.19267,0.98983 -2.16849,2.45024 -2.16849,3.24535 0,0.80643 0.95884,0.64988 2.16849,-0.35403 1.19266,-0.98983 2.16848,-2.45023 2.16848,-3.24534 z m -143.12028,1.79968 c 0,-0.79511 -0.68894,-1.44566 -1.53098,-1.44566 -0.84203,0 -1.12891,0.65055 -0.63751,1.44566 0.49141,0.79512 1.18035,1.44566 1.53098,1.44566 0.35063,0 0.63751,-0.65054 0.63751,-1.44566 z m 8.85335,-82.7881 c -1.42776,-1.41712 -1.59381,-1.25107 -0.80928,0.80928 0.54289,1.42574 1.35125,2.22808 1.79635,1.78298 0.4451,-0.44511 9.2e-4,-1.61161 -0.98707,-2.59226 z m -5.96203,-3.07396 c 0,-0.31249 -1.00961,-0.95558 -2.24357,-1.42911 -1.28653,-0.49368 -1.86681,-0.25132 -1.36034,0.56816 0.84897,1.37368 3.60391,2.0318 3.60391,0.86095 z m 135.89199,-7.20596 c 0,-0.30019 -1.13846,-1.43865 -2.52991,-2.52991 -2.2929,-1.79821 -2.34403,-1.74708 -0.54582,0.54583 1.88857,2.4081 3.07573,3.17391 3.07573,1.98408 z m -145.83222,-5.62233 c -1.42775,-1.41712 -1.59381,-1.25107 -0.80927,0.80928 0.54289,1.42574 1.35125,2.22808 1.79635,1.78297 0.4451,-0.4451 9.1e-4,-1.6116 -0.98708,-2.59225 z m 5.77973,-42.51443 c -1.70421,-2.93066 -2.11574,-1.99262 -0.72071,1.64276 0.49578,1.29199 1.20596,2.04454 1.57817,1.67233 0.37221,-0.37222 -0.0136,-1.86401 -0.85746,-3.31509 z M 500.18792,217.5883 c 0.50648,-0.81949 -0.0738,-1.06185 -1.36033,-0.56816 -2.50449,0.96106 -2.96272,1.99726 -0.88324,1.99726 0.74818,0 1.7578,-0.64309 2.24357,-1.4291 z M 389.60521,193.80368 c 0,-0.35063 -0.65054,-1.03957 -1.44566,-1.53098 -0.79511,-0.4914 -1.44565,-0.20452 -1.44565,0.63751 0,0.84204 0.65054,1.53098 1.44565,1.53098 0.79512,0 1.44566,-0.28688 1.44566,-0.63751 z m -1.44566,-5.86796 c 0,-1.19266 -0.25567,-2.16848 -0.56815,-2.16848 -0.3125,0 -0.94262,0.97582 -1.4003,2.16848 -0.45767,1.19267 -0.20199,2.16849 0.56816,2.16849 0.77016,0 1.40029,-0.97582 1.40029,-2.16849 z m -3.81418,-1.44565 c 0.45767,-1.19267 0.20199,-2.16849 -0.56816,-2.16849 -0.77016,0 -1.40029,0.97582 -1.40029,2.16849 0,1.19266 0.25568,2.16848 0.56816,2.16848 0.31249,0 0.94261,-0.97582 1.40029,-2.16848 z m 3.09135,-25.29904 c -0.4914,-0.79512 -1.66826,-1.4357 -2.61522,-1.42353 -1.03453,0.0133 -0.85622,0.58149 0.44674,1.42353 2.77728,1.79482 3.27774,1.79482 2.16848,0 z m 40.17452,-13.01094 c 0.41586,-1.59022 0.16645,-2.89132 -0.55422,-2.89132 -0.72068,0 -1.31032,1.3011 -1.31032,2.89132 0,1.59023 0.2494,2.89132 0.55422,2.89132 0.30482,0 0.89446,-1.30109 1.31032,-2.89132 z"
       id="path1"
       inkscape:label="left side" />
    <path
       style="fill:#1f3f6b;fill-opacity:1"
       d="m 369.36598,997.86641 c -0.24094,1.6866 -0.94318,3.37039 -0.72283,5.05979 1.44464,11.0755 6.81745,21.2226 12.28811,30.7203 5.13751,8.9193 10.48937,17.7574 16.62508,26.0218 5.7018,7.68 12.06586,14.8856 18.79358,21.6849 5.60919,5.6689 13.35192,12.5458 21.32347,15.9023 0.24827,0.1045 0.59201,-0.1259 0.72283,-0.3614 1.09923,-1.9786 1.92237,-4.0985 2.89132,-6.1441 3.55689,-7.509 6.48672,-13.8796 7.2283,-22.4077 1.1268,-12.9582 0.72581,-12.4879 -2.52991,-22.7691 -1.41467,-4.4674 -2.22335,-9.1901 -4.33697,-13.3724 -5.76537,-11.408 -12.6724,-20.707 -20.60065,-30.3588 -6.15588,-7.49409 -14.11794,-17.17859 -23.13055,-21.68489 -3.7453,-1.8727 -12.55183,-0.5568 -16.26367,0 -1.10449,0.1657 -4.20132,0.1468 -5.05981,0.3614 -0.78402,0.196 -1.40641,0.8153 -2.16849,1.0842 -13.5038,4.7661 -7.36426,1.1298 -15.90225,7.2283"
       id="path8" />
    <path
       style="fill:#1f3f6b;fill-opacity:1"
       d="m 209.25266,129.53333 c -6.04436,13.10692 -3.70663,27.95735 -4.08894,41.91165 -0.61036,22.27799 -3.31997,44.63522 -2.04448,66.95643 1.34639,23.56171 4.40594,46.99743 6.13342,70.53426 0.49946,6.80511 0.60945,13.63379 1.02223,20.44471 0.26877,4.43464 0.52061,8.8747 1.02224,13.28906 0.35104,3.08913 1.35079,6.09648 1.53335,9.20012 0.33015,5.6126 0,11.2446 0,16.86689 0,4.94081 -0.20569,9.88589 0,14.82242 0.13551,3.25214 0.80281,6.46368 1.02224,9.71123 0.63264,9.36308 1.12572,18.73592 1.53335,28.11148 0.44443,10.22192 -0.44687,20.44849 0.51112,30.66707 0.91152,9.72284 2.34478,19.38768 3.06671,29.13371 0.42396,5.7235 0.0166,11.69157 0.51111,17.37801 0.78203,3.5191 1.29804,5.15927 1.53336,8.689 0.19266,2.88992 -0.14464,5.79628 0,8.689 0.53064,10.61291 3.68624,25.54213 9.71124,34.2449 5.40018,7.80027 14.56563,9.75922 23.0003,12.77794 12.7865,4.57622 25.58839,9.11082 38.33383,13.80018 5.31511,1.95556 10.3957,4.58954 15.84465,6.13342 4.82382,1.36674 9.93711,1.4282 14.82242,2.55558 3.99114,0.92104 7.82951,2.41058 11.75571,3.57783 2.3778,0.70691 4.84677,1.13741 7.15565,2.04447 2.48208,0.9751 4.66224,2.63205 7.15564,3.57782 2.47297,0.93803 5.11118,1.36299 7.66677,2.04448 8.61052,2.29613 14.61305,3.0667 23.51142,3.0667 2.43212,0 10.2474,0.75415 12.77794,-0.51112 0.64652,-0.32325 0.97392,-1.07563 1.53336,-1.53335 1.31861,-1.07886 2.81556,-1.93481 4.08894,-3.06671 4.54893,-4.04349 5.87125,-6.04015 9.71124,-10.73347 4.51708,-5.52087 9.30197,-10.81951 13.80018,-16.35577 3.45683,-4.25456 4.70324,-6.70052 7.66677,-11.24459 6.55845,-10.0563 12.63771,-20.61518 19.93359,-30.15595 2.27919,-2.98048 4.98415,-5.62916 7.15565,-8.689 1.58992,-2.24034 2.68493,-4.79436 4.08894,-7.15565 2.34452,-3.94306 4.76354,-7.84135 7.15565,-11.75571 1.36298,-2.21484 2.72596,-4.42969 4.08894,-6.64453 0.34075,-0.85186 0.5502,-1.76885 1.02224,-2.55559 0.56127,-0.93545 1.65285,-1.53739 2.04447,-2.55559 0.92552,-2.40636 0.29475,-5.19333 1.02223,-7.66677 3.16802,-10.77126 1.06845,0.53215 3.57783,-10.22235 7.09168,-30.39294 -1.17037,0.88292 3.57782,-14.3113 0.7276,-2.32832 0.59514,-4.90393 1.53336,-7.15565 0.47253,-1.13407 1.62461,-1.9121 2.04447,-3.06671 0.29112,-0.80057 -0.10566,-1.7103 0,-2.55559 0.16559,-1.32471 0.69706,-2.78824 1.02223,-4.08894 0.7587,-3.03479 -0.51491,-6.62173 0,-9.71124 0.23097,-1.38581 0.77808,-2.70539 1.02224,-4.08894 0.89479,-5.07048 0.29645,-4.74845 0.51112,-10.22235 0.26738,-6.81818 0.68568,-13.6296 1.02223,-20.44472 0.64672,-13.09604 1.02224,-25.79069 1.02224,-38.84495 0,-2.38521 0.16994,-4.77649 0,-7.15565 -0.17167,-2.40331 -0.76555,-4.75992 -1.02224,-7.15565 -0.45521,-4.2486 0.0141,-8.6326 -1.02223,-12.77794 -0.57554,-2.30216 -1.96005,-4.34746 -2.55559,-6.64453 -0.60468,-2.33232 -0.36817,-4.83669 -1.02224,-7.15565 -4.32168,-15.32233 -3.36219,-8.37397 -7.15565,-18.91136 -0.78492,-2.18033 -1.18384,-4.49295 -2.04447,-6.64453 -0.84892,-2.1223 -2.24615,-3.99998 -3.0667,-6.13341 -1.78102,-4.63063 -2.4716,-9.621 -4.08895,-14.3113 -1.72263,-4.99563 -3.71469,-9.89445 -5.62229,-14.82242 -4.11229,-10.6234 -8.68954,-21.05943 -12.77795,-31.6893 -0.46578,-1.21103 -1.16723,-2.33303 -1.53335,-3.57783 -2.19099,-7.44936 -2.65066,-15.35122 -3.57783,-23.0003 -0.6408,-5.28664 -1.73175,-10.5285 -2.04447,-15.84465 -0.2388,-4.0597 0.74389,-10.59184 0,-14.3113 -0.14942,-0.74713 -0.85695,-1.30068 -1.02223,-2.04447 -0.1848,-0.83157 0.10566,-1.7103 0,-2.55559 -0.23627,-1.89011 -0.78597,-3.73218 -1.02224,-5.62229 -0.90615,-7.24924 -1.17921,-12.291 -5.62229,-18.40024 -1.25988,-1.73233 -3.60092,-2.81103 -5.11118,-4.08894 -1.1036,-0.93382 -1.83751,-2.30578 -3.06671,-3.06671 -2.39789,-1.48441 -5.18701,-2.23463 -7.66676,-3.57783 -1.62042,-0.87772 -2.9676,-2.2116 -4.60006,-3.0667 -7.08241,-3.70983 -12.37191,-4.18198 -19.9336,-5.6223 -5.57222,-1.06137 -11.153,-2.67264 -16.86689,-3.0667 -8.83838,-0.60955 -17.71875,0 -26.57812,0 -13.74605,0 -27.66616,-0.59715 -41.40054,0 -6.33453,0.27541 -12.61185,1.32452 -18.91136,2.04447 -5.46722,0.62482 -10.9013,1.38993 -16.35577,2.04447 -4.41113,0.52933 -8.87557,0.51298 -13.28906,1.02223 -5.6943,0.65704 -11.15616,2.80713 -16.86689,3.06671 -2.38276,0.10831 -4.7741,-0.13231 -7.15565,0 -0.70138,0.039 -1.34549,0.44122 -2.04447,0.51112 -4.76191,0.47619 -9.5503,0.49323 -14.3113,1.02223 -0.98134,0.10904 -3.36202,-0.18173 -4.08894,0 -1.93462,0.48366 -3.70917,1.48179 -5.6223,2.04447 -10.48751,3.08457 3.3788,-1.48912 -5.62229,0.51112 -1.99925,0.44428 -4.33347,2.16674 -6.13341,3.06671 -0.76668,0.38334 -0.51112,-0.76668 -1.53336,0 -0.49143,0.36857 -0.6477,1.04645 -1.02223,1.53335 -1.33029,1.72938 -2.72597,3.40745 -4.08895,5.11118"
       id="path9" />
    <path
       style="fill:#1f3f6b;fill-opacity:1"
       d="m 485.76738,196.48976 c 1.02224,2.21484 1.62744,4.67501 3.06671,6.64453 1.84809,2.52896 4.42969,4.42968 6.64453,6.64453 1.8741,1.8741 3.5653,3.95099 5.6223,5.62229 0.71207,0.57856 2.84572,1.89264 2.55559,1.02224 -0.57272,-1.71815 -2.39919,-2.71386 -3.57783,-4.08894 -0.1568,-0.18294 0.43493,0.28254 0.51112,0.51111 0.10235,0.30707 0.51112,1.86367 0.51112,2.04448 0,1.00137 1.14697,1.58964 1.53335,2.55558 0.43227,1.08067 0.3477,2.4536 1.02224,3.57783 0.24792,0.41321 0.75493,0.62128 1.02223,1.02224 0.0326,0.049 0.48251,2.95229 0.51112,3.0667 0.33223,1.32892 1.71224,1.73779 2.04447,3.06671 0.15012,0.6005 -0.27565,2.00429 0,2.55559 0.0762,0.15238 0.39065,-0.12047 0.51112,0 0.21005,0.21005 0.46947,2.52528 0.51112,3.0667 0.15734,2.04552 0.17384,4.10977 0.51111,6.13342 0.028,0.16805 0.43493,-0.15239 0.51112,0 0.31415,0.6283 0.37335,1.35565 0.51112,2.04447 0.22289,1.11448 -0.0746,2.45817 0,3.57782 0.57665,8.64977 1.53383,17.36995 1.02223,26.06701 -0.34241,5.82096 -1.40529,11.62538 -2.04447,17.37801 -0.18814,1.6933 0.21132,3.4206 0,5.11117 -0.0668,0.53461 -0.46637,0.99645 -0.51111,1.53336 -0.41761,5.0113 0,10.8334 0,15.84465 0,9.20012 0,18.40024 0,27.60036 0,9.02975 0,18.05949 0,27.08924 0,5.42861 0.37245,11.05437 -0.51112,16.35577 -0.67222,4.03331 0.25506,8.18585 0,12.26683 -0.11882,1.90111 -0.85722,3.72463 -1.02224,5.62229 -0.17711,2.03679 0,4.08895 0,6.13342 -0.17037,2.38521 -0.27317,4.77622 -0.51112,7.15565 -0.68265,6.82652 -1.30892,8.31387 -1.53335,14.82241 -0.49102,14.23949 0,28.71009 0,42.9339 0,19.42247 0,38.84495 0,58.26742 0,7.15565 -0.2804,14.3168 0,21.46695 0.22738,5.79823 0.79485,11.57978 1.02224,17.37801 0.11349,2.89411 -0.17008,5.79766 0,8.689 0.51205,8.70497 2.27883,17.40042 3.0667,26.06701 0.23035,2.5338 -0.22038,5.13234 0,7.66676 0.61043,7.01994 2.04447,13.896 2.04447,20.95583 0,0.25803 0.43671,5.52203 0,6.13342 -3.08259,4.31562 -16.47581,9.17108 -20.95583,11.75571 -1.80137,1.03925 -3.3083,2.54117 -5.11117,3.57782 -5.0217,2.88748 -10.34648,5.23098 -15.33354,8.17788 -2.52355,1.49119 -4.61668,3.6464 -7.15565,5.11118 -1.91846,1.10681 -4.16836,1.53377 -6.13341,2.55559 -2.30732,1.19981 -4.38656,2.79867 -6.64453,4.08894 -1.32308,0.75605 -2.79114,1.24582 -4.08894,2.04448 -0.92909,0.57174 -1.60478,1.50963 -2.55559,2.04447 -3.20567,1.94221 -6.95601,2.78542 -10.22236,4.60006 -1.61095,0.89497 -2.98421,2.1806 -4.60006,3.0667 -9.87718,5.41652 -9.88442,4.63808 -18.40024,9.20012 -16.2197,8.68913 -31.16693,16.48719 -48.55619,24.02254 -4.3011,1.86381 -8.97495,2.76656 -13.28906,4.60006 -2.52831,1.07453 -4.73407,2.79167 -7.15565,4.08894 -16.43785,8.80599 1.08749,-1.12011 -12.77794,6.64453 -2.23038,1.24901 -5.60712,3.82959 -8.68901,4.60006 -0.66114,0.16529 -1.36298,0 -2.04447,0 -4.9408,0 -9.88161,0 -14.82241,0 -7.4964,0 -14.99279,0 -22.48919,0 -10.5631,0 -21.1262,0 -31.6893,0 -4.08894,0 -8.17788,0 -12.26683,0 -1.53335,0 -3.1257,0.42125 -4.60006,0 -4.90788,-1.40225 -3.65985,-1.52517 -9.71124,-5.11117 -2.36337,-1.40052 -4.83796,-2.61406 -7.15564,-4.08895 -3.30907,-2.10577 -7.03853,-3.77384 -9.71124,-6.64453 -1.42242,-1.52778 -7.78948,-16.65328 -8.17789,-17.88912 -0.83156,-2.64587 -1.0458,-5.44761 -1.53335,-8.17789 -0.69919,-3.91545 -1.73942,-7.79003 -2.04447,-11.7557 -0.39201,-5.09613 0,-10.22236 0,-15.33354 0,-10.22235 0,-20.44471 0,-30.66707 0,-16.13516 0.82882,-32.47693 -0.51112,-48.55619 -0.82906,-9.94867 -3.80573,-17.20541 -0.51112,-27.08924 1.45622,-4.36866 3.87901,-8.47906 7.15565,-11.75571 0.9498,-0.9498 4.33194,-2.96556 5.11118,-3.57782 16.32175,-12.82423 -8.45418,5.60059 8.689,-6.64453 0.88772,-0.63409 1.59507,-1.52727 2.55559,-2.04447 1.28167,-0.69014 2.76376,-0.931 4.08894,-1.53336 0.55923,-0.25419 0.93271,-0.89352 1.53336,-1.02223 6.30158,-1.35034 29.72479,-2.5231 30.66706,-2.55559 24.63073,-0.84934 18.45577,-1.31837 37.3116,3.0667 2.8981,0.67398 5.77612,1.43762 8.68901,2.04448 1.11747,0.2328 4.79328,0.18465 6.13341,1.02223 4.02937,2.51836 1.32695,1.64231 5.11118,5.11118 1.08037,0.99034 2.38521,1.70372 3.57782,2.55559"
       id="path10" />
    <path
       style="fill:#1f3f6b;fill-opacity:1"
       d="m 180.11894,734.18567 c 0.60696,6.57298 -0.77102,13.37988 0,19.93359 0.33288,2.82941 3.61498,23.03362 4.08895,26.06701 0.47387,3.03282 0.74502,6.15077 1.02223,9.20012 0.22472,2.47187 -0.39623,2.69159 0.51112,5.11118 0.21569,0.57518 0.74752,0.98392 1.02224,1.53335 0.9016,1.80321 1.14129,4.17314 1.53335,6.13342 0.43725,2.18625 0,4.92106 0,7.15565 0,6.13341 0,12.26682 0,18.40024 0,3.77378 -1.58851,7.0858 -2.04447,10.73347 -0.27272,2.18174 -0.26759,4.45278 -0.51112,6.64453 -0.32352,2.91171 -1.24285,5.78394 -1.53335,8.689 -0.0848,0.84764 0.11509,1.71154 0,2.55559 -0.56009,4.10733 -1.76873,8.13067 -2.04448,12.26683 -0.14732,2.20994 0.22039,4.44068 0,6.64453 -0.25654,2.56541 -0.77779,5.10018 -1.02223,7.66677 -0.38602,4.05325 0.33818,8.20871 0,12.26682 -0.47084,5.65004 -0.97026,11.23593 -1.53335,16.86689 -0.24776,2.47757 0,5.20199 0,7.66677 0,5.11118 0,10.22235 0,15.33353 0,6.00402 -0.88155,14.36294 0.51111,19.9336 0.80175,3.207 0.25078,6.94363 1.02224,10.22235 0.37019,1.57333 1.14134,3.03202 1.53335,4.60006 0.29219,1.16875 0.15683,2.42634 0.51112,3.57784 0.33611,1.0923 1.10889,2.0055 1.53335,3.0667 0.66061,1.6515 0.73788,3.5202 1.53336,5.1112 0.19071,0.3814 0.85458,1.8768 1.02223,2.0444 0.12047,0.1205 0.36936,-0.095 0.51112,0 2.20498,1.47 4.21109,3.3834 6.64453,4.6001 1.68347,0.8417 5.17122,-1.1095 6.64453,0.5111 1.46766,1.6144 2.60905,3.508 4.08895,5.1112 0.5778,0.626 1.44211,0.931 2.04447,1.5334 0.60235,0.6023 0.93099,1.4421 1.53335,2.0444 0.60236,0.6024 1.44211,0.931 2.04447,1.5334 0.25556,0.2555 0.25556,0.7667 0.51112,1.0222 0.26938,0.26939 0.75285,0.24169 1.02223,0.51109 5.38475,5.3848 -4.98566,-2.53759 5.6223,5.6223 1.76072,1.3544 3.67215,2.5141 5.6223,3.5778 1.13908,0.6214 2.66034,0.6159 3.57782,1.5334 0.12047,0.1205 -0.12047,0.3906 0,0.5111 0.12047,0.1205 0.34075,0 0.51112,0 0.17037,0.3408 0.24173,0.7529 0.51112,1.0223 1.15875,1.1587 1.12535,-0.3049 2.04447,1.5333 0.25297,0.506 0.0644,2.1089 0.51112,2.5556 0.12047,0.1205 0.39064,-0.1205 0.51111,0 0.61096,0.611 1.19287,1.8746 1.53336,2.5556 0.32326,0.6465 1.1324,0.9319 1.53335,1.5333 0.0945,0.1418 -0.12047,0.3907 0,0.5112 1.05752,1.0575 -0.0413,-1.6161 1.02224,0.5111 0.15788,0.3157 0.32166,1.855 0.51111,2.0444 0.12047,0.1205 0.39065,-0.1204 0.51112,0 0.23627,0.2363 -0.1543,1.2248 0,1.5334 2.06725,4.1345 3.84044,7.9649 7.66677,11.2446 0.56319,0.4827 1.99149,0.7715 2.55559,1.0222 2.5771,1.1454 5.06353,2.4932 7.66676,3.5779 8.55363,3.564 0.915,-0.168 8.17789,2.5555 3.96925,1.4885 11.17559,8.247 14.82241,10.7335 3.91119,2.6667 8.32808,4.5298 12.26683,7.1557 0.14176,0.094 -0.0877,0.365 0,0.5111 0.43828,0.7304 0.85186,1.5333 1.53335,2.0445 0.73399,0.5504 1.80396,0.496 2.55559,1.0222 3.80969,2.6668 9.76764,10.4042 12.77795,13.2891 1.21097,1.1605 7.43396,5.9006 9.20012,7.6667 1.11069,1.1107 1.95601,2.4671 3.06671,3.5778 1.66993,2.1297 4.25158,3.2294 6.13341,5.1112 0.12047,0.1205 0,0.3408 0,0.5111 0.68149,0.8519 1.2336,1.8258 2.04447,2.5556 0.91319,0.8219 2.12289,1.258 3.06671,2.0445 0.13088,0.1091 -0.12607,0.3965 0,0.5111 1.79172,1.6289 3.91007,2.8879 5.62229,4.6001 1.54279,1.5428 2.54615,3.5684 4.08894,5.1112 2.05156,2.0515 4.54107,3.624 6.64454,5.6223 2.4518,2.3292 4.13086,5.4044 6.64453,7.6667 2.14438,1.93 1.54226,0.2305 2.55559,1.5334 1.48662,1.9113 3.14719,3.6851 4.60006,5.6223 0.59606,0.7947 0.92344,1.7714 1.53335,2.5556 0.88755,1.1411 2.30051,1.8407 3.06671,3.0667 1.53651,2.4584 1.12921,3.1736 3.0667,5.1111 0.12047,0.1205 0.34075,0 0.51112,0 0.34075,0.3408 0.7331,0.6368 1.02224,1.0223 0.62807,0.8374 0.28089,1.8142 1.02223,2.5556 0.12047,0.1204 0.39065,-0.1205 0.51112,0 0.38096,0.3809 0.13015,1.1524 0.51112,1.5333 0.26938,0.2694 0.81091,0.1942 1.02223,0.5111 0.18901,0.2836 -0.15238,0.7175 0,1.0223 0.38097,0.7619 1.11071,1.3048 1.53336,2.0444 0.28092,0.4917 2.42878,4.604 2.55559,5.1112 0.12396,0.4959 -0.12397,1.0375 0,1.5334 0.0584,0.2337 0.43492,0.2825 0.51111,0.5111 0.32803,0.9841 0,2.529 0,3.5778 0,3.159 0.36855,6.7992 1.53336,9.7113 0.0797,0.1992 1.37904,1.8901 1.53335,2.0444 0.12047,0.1205 0.39065,-0.1204 0.51112,0 0.66887,0.6689 1.10928,3.8933 1.53335,4.6001 0.24144,0.4024 1.79733,0.264 2.04447,0.5111 0.12047,0.1205 -0.12047,0.3906 0,0.5111 1.62078,1.6208 3.31213,3.1798 5.11118,4.6001 2.48738,1.9637 5.0777,3.7947 7.66677,5.6223 0.31123,0.2197 0.64336,0.551 1.02223,0.5111 7.39931,-0.7789 14.71042,-2.6354 21.97807,-4.0889 1.34691,-0.2694 2.75636,-0.178 4.08894,-0.5112 0.16529,-0.041 -0.13864,-0.4121 0,-0.5111 0.84103,-0.6007 6.46735,-4.2473 7.66677,-4.6 0.66856,-0.1967 11.35256,-2.0109 11.75571,-2.0445 2.0374,-0.1698 4.09247,0.12 6.13341,0 2.36221,-0.139 7.45339,-2.2081 8.689,-2.5556 21.7992,-5.4498 0.71056,0.016 16.86689,-4.6001 2.54313,-0.7266 5.23993,-0.9928 7.66677,-2.0444 2.73459,-1.185 5.0011,-3.2673 7.66676,-4.6001 2.12249,-1.0612 4.50521,-1.5287 6.64453,-2.5556 2.13381,-1.0242 4.05951,-2.4372 6.13342,-3.5778 1.33523,-0.7344 2.79113,-1.2458 4.08894,-2.0445 0.92909,-0.5717 1.62014,-1.4832 2.55559,-2.0445 0.78674,-0.472 1.75899,-0.567 2.55559,-1.0222 0.41839,-0.2391 0.60736,-0.7771 1.02223,-1.0222 6.36827,-3.7631 12.8064,-7.4255 19.42248,-10.7335 39.36247,-19.6812 -1.59235,2.4454 20.95583,-11.2446 2.47575,-1.5031 5.38589,-2.3039 7.66677,-4.0889 2.4599,-1.9252 5.94285,-7.9441 7.15564,-10.7335 6.77426,-15.5808 5.6223,-33.038 5.6223,-49.5784 0,-15.8447 0,-31.6893 0,-47.534 0,-15.5039 0,-31.00779 0,-46.51169 0,-13.12824 -0.13529,-24.77416 -1.53335,-37.82272 -0.21856,-2.03988 -0.12725,-4.11809 -0.51112,-6.13341 -0.30243,-1.58775 -1.16316,-3.02673 -1.53335,-4.60006 -0.31461,-1.33708 -0.12354,-2.77117 -0.51112,-4.08894 -1.64403,-5.5897 -2.31556,-3.32437 -3.57783,-8.68901 -0.35336,-1.50177 -0.20855,-3.08723 -0.51111,-4.60006 -0.95095,-4.75472 -2.82706,-9.28707 -4.60006,-13.80018 -1.53482,-3.90679 -4.57427,-7.34671 -6.13342,-11.24459 -5.46679,-13.66699 -0.12176,-1.29831 -2.55559,-10.22235 -0.20047,-0.73509 -0.71278,-1.34822 -1.02223,-2.04448 -2.29124,-5.15528 -3.86851,-7.03972 -8.17789,-10.73347 -2.77159,-2.37565 1.42544,0.0826 -4.60006,-4.08894 0.4167,-3.42268 -3.05323,-1.0155 -4.08894,-1.53336 -0.30477,-0.15238 0.0826,-0.69166 0,-1.02223 -0.13067,-0.52268 -0.42254,-1.00192 -0.51112,-1.53335 -0.3351,-2.01059 -0.0151,-4.14949 -0.51112,-6.13342 -0.22252,-0.89009 -0.89248,-1.64732 -1.02223,-2.55559 -0.2449,-1.71429 0,-4.1732 0,-6.13341 0,-0.34075 0.24094,-0.78129 0,-1.02224 -0.12047,-0.12047 -0.39065,0.12048 -0.51112,0 -0.12047,-0.12047 0.12047,-0.39064 0,-0.51111 -0.34805,-0.34806 -2.61484,0.11296 -3.06671,0 -1.23718,-0.3093 -1.02615,-0.76962 -2.04447,-1.53336 -1.77711,-1.33283 -3.83591,-2.25745 -5.62229,-3.57782 -3.61716,-2.67355 -7.27804,-5.29836 -10.73348,-8.17789 -6.38145,-5.31787 0.44661,-0.0645 -4.08894,-4.60006 -0.26938,-0.26938 -0.68149,-0.34074 -1.02223,-0.51111 -0.68149,-0.68149 -1.42748,-1.30408 -2.04447,-2.04447 -3.28959,-3.94751 -6.14757,-10.58669 -8.68901,-14.82242 -1.54487,-2.57478 -4.29685,-4.68091 -5.11118,-7.66677 -1.37146,-9.60027 0.73489,1.04816 -2.04447,-5.62229 -3.77494,-9.05987 0.82514,-0.15868 -1.53335,-6.64453 -1.62099,-4.45772 -1.54364,-1.57967 -2.55559,-6.13342 -0.38607,-1.73731 0.56042,-3.94104 0,-5.62229 -0.45433,-1.36299 -1.24558,-2.65008 -1.53335,-4.08895 -0.40649,-2.03242 -0.51954,-4.12262 -1.02224,-6.13341 -0.35305,-1.4122 -1.12261,-2.69243 -1.53335,-4.08894 -1.92694,-6.55159 0.0167,-2.85192 -2.55559,-9.71124 -1.30054,-3.4681 -2.89856,-6.6512 -4.08894,-10.22236 -0.44428,-1.33283 -0.57796,-2.75611 -1.02224,-4.08894 -1.60807,-4.82421 -9.0072,-17.00503 -9.20012,-17.378 -0.15654,-0.30266 0,-0.68149 0,-1.02224 -0.17037,-0.51112 -0.23392,-1.07136 -0.51112,-1.53335 -0.61982,-1.03304 -1.803,-1.61487 -2.55558,-2.55559 -0.23799,-0.29748 -0.21364,-0.78425 -0.51112,-1.02224 -0.59497,-0.47597 -1.50571,-0.48347 -2.04447,-1.02223 -0.70247,-0.70247 -0.95594,-1.7472 -1.53336,-2.55559 -1.54685,-2.16559 -3.73256,-3.96294 -6.13341,-5.11118 -2.0506,-0.98072 -4.44509,-0.95958 -6.64453,-1.53335 -12.13179,-3.16482 -25.63721,-6.20572 -38.33384,-5.11118 -31.35422,2.70295 -12.60055,1.47563 -32.20042,4.08894 -12.37584,1.65011 -24.89469,3.26968 -37.3116,4.60006 -2.37768,0.25475 -4.78678,0.18438 -7.15564,0.51112 -5.5285,0.76255 -10.81316,2.92575 -16.35577,3.57782 -5.76294,0.678 -11.59537,0.54035 -17.37801,1.02224 -8.8631,0.73859 -17.76195,2.42789 -26.57812,3.57782 -5.63457,0.73495 -11.24679,0.17922 -16.86689,1.02224 -4.68064,0.7021 -8.60265,2.45309 -13.28906,3.57782 -1.33566,0.32056 -2.77117,0.12354 -4.08895,0.51112 -3.00498,0.88382 -5.68401,2.69401 -8.689,3.57783 -1.50693,0.44321 -3.11885,0.49945 -4.60006,1.02223 -3.01852,1.06536 -5.6977,2.9494 -8.689,4.08895 -4.00433,1.52546 -8.84366,2.34036 -12.77795,4.08894 -1.58939,0.70639 -2.32801,2.87345 -4.08894,3.57782 -0.79093,0.31638 -1.72027,-0.16706 -2.55559,0 -1.34919,0.26984 -1.43496,1.48416 -2.55559,2.04447 -9.80881,4.90441 2.49341,-3.07429 -9.20012,5.11118 z"
       id="path11" />
    <path
       style="fill:#1f3f6b;fill-opacity:1"
       d="m 606.9023,915.12137 c 1.94948,2.79585 4.96257,3.88388 7.66677,5.62229 3.57786,-1.30221 2.98376,2.5003 4.60006,3.57783 0.035,0.0233 4.35468,2.31021 4.60006,2.55559 0.57105,0.57105 0.76506,2.55236 1.02223,3.0667 1.16959,2.33919 -0.21184,-2.16888 1.02224,1.53336 0.49388,1.48166 -0.39717,3.08625 0.51111,4.60006 2.46937,4.11561 4.49558,8.48003 6.64454,12.77794 0.78445,1.56891 1.82974,3.0032 2.55559,4.60006 1.21203,2.66649 1.19046,5.44507 2.04447,8.17789 1.58719,5.07902 3.66073,9.91852 5.62229,14.82242 1.04611,2.6153 1.65037,6.1396 3.06671,8.689 0.4137,0.7447 1.15239,1.2825 1.53335,2.0445 4.09006,8.1801 -1.23399,0 3.57783,8.1779 2.61034,4.4375 5.76642,8.55639 8.689,12.77789 0.90748,1.3108 0.10365,1.1259 1.53335,2.5556 0.26939,0.2694 0.75286,0.2417 1.02224,0.5111 0.12047,0.1205 0,0.3407 0,0.5111 0.17037,0.1704 0.31836,0.3666 0.51112,0.5111 5.24798,3.936 10.31499,8.2369 15.84465,11.7557 1.46184,0.9303 7.10923,3.5315 8.17788,4.6001 0.53877,0.5388 0.57937,1.4245 1.02224,2.0445 1.77922,2.4909 5.04193,4.4389 7.15565,6.6445 0.25648,0.2677 11.95888,12.5479 13.80018,14.8224 1.82405,2.6058 4.56717,6.6434 6.64453,9.2001 10.7353,13.2127 -2.79482,-4.4704 6.13341,8.1779 2.10591,2.9834 3.90826,4.6196 5.6223,7.6668 0.93386,1.6602 1.62173,3.451 2.55559,5.1112 0.60232,1.0708 1.462,1.985 2.04447,3.0667 0.61515,1.1424 0.91203,2.4387 1.53335,3.5778 0.40792,0.7479 1.07601,1.3258 1.53335,2.0445 2.92361,4.5942 5.47899,9.5882 8.17789,14.3113 3.25965,5.7044 4.69677,12.3193 8.17788,17.8891 0.90298,1.4448 2.20289,2.6204 3.06671,4.0889 0.85077,1.4463 1.26296,3.1152 2.04447,4.6001 6.90839,13.1259 -0.36571,-1.4906 5.6223,8.689 0.96578,1.6418 1.6012,3.4627 2.55559,5.1112 0.92334,1.5948 2.24255,2.9517 3.0667,4.6 0.89182,1.7837 1.36298,3.7482 2.04447,5.6223 2.55559,4.7705 5.0753,9.5603 7.66677,14.3113 7.87662,14.4405 1.52235,2.0225 8.17789,15.3336 1.53335,3.0667 3.56757,5.9306 4.60006,9.2001 0.5736,1.8164 0.45407,3.8042 1.02223,5.6223 0.29632,0.9482 1.12227,1.6512 1.53335,2.5556 0.44589,0.9809 0.60781,2.072 1.02224,3.0667 0.5861,1.4066 1.47852,2.6741 2.04447,4.0889 0.96668,2.4167 0.11385,0.9096 1.02224,4.089 1.61175,5.6411 3.53902,11.2071 5.11117,16.8669 2.42227,8.7201 -0.36888,-1.0682 1.53336,9.7112 0.18726,1.0611 0.84509,2.0038 1.02223,3.0667 0.16806,1.0083 -0.0784,2.0475 0,3.0667 0.61546,8.0009 0.51112,15.9592 0.51112,24.0225 0,19.4225 0,38.845 0,58.2675 0,5.963 0,11.9261 0,17.8891 0,4.7796 -0.27873,9.5722 0.51112,14.3113 0.71296,4.2778 1.84437,8.5106 2.55559,12.7779 0.11203,0.6723 -0.0678,1.3664 0,2.0445 0.44081,4.4081 1.84478,9.8289 3.0667,13.8002 2.78528,9.0521 1.43947,1.1343 3.57783,10.2223 0.92967,3.9511 1.49621,10.2689 2.55559,13.8002 0.88416,2.9472 2.86555,3.9531 4.08894,6.6446 1.00942,2.2207 0.76196,4.8414 1.53335,7.1556 0.36142,1.0842 1.32891,1.9423 1.53336,3.0667 0.48858,2.6872 0.31652,5.4536 0.51112,8.1779 0.48819,6.8348 0.10149,12.6838 -0.51112,19.4225 -0.0771,0.8483 0.2066,1.7291 0,2.5556 -0.14899,0.5959 -0.86061,0.9407 -1.02224,1.5333 -0.66866,2.4518 0.0834,15.1667 -0.51112,16.3558 -5.12032,10.2406 -0.078,0.4158 -3.0667,4.6 -0.57742,0.8084 -0.89737,1.7925 -1.53336,2.5556 -0.24388,0.2927 -0.72957,0.2673 -1.02223,0.5111 -1.20669,1.0056 -2.39571,2.0324 -3.57783,3.0668 -2.36843,2.0723 -4.76518,4.0844 -7.15565,6.1334 -0.73175,0.6272 -1.14963,1.6865 -2.04447,2.0444 -4.27849,1.7114 -9.78327,2.5007 -14.31129,3.0667 -0.50718,0.063 -1.03441,-0.1108 -1.53336,0 -3.06793,0.6818 -4.32071,1.6915 -7.66676,1.0223 -1.4274,-0.2855 -2.69954,-1.0992 -4.08895,-1.5334 -1.34097,-0.419 -2.77063,-0.5365 -4.08894,-1.0222 -3.50618,-1.2918 -6.73058,-3.2699 -10.22236,-4.6001 -11.11668,-4.2349 -1.39848,0.323 -11.24459,-4.6 -7.58791,-3.794 -14.81094,-8.0594 -21.46694,-13.2891 -9.61774,-7.5568 1.5321,0.5867 -8.17789,-7.6668 -1.9472,-1.6551 -4.28061,-2.8399 -6.13341,-4.6 -1.58183,-1.5028 -2.59841,-3.5179 -4.08894,-5.1112 -3.45665,-3.695 -7.42973,-6.9011 -10.73348,-10.7335 -0.99499,-1.1542 -1.23683,-2.7967 -2.04447,-4.0889 -1.30642,-2.8119 -3.9744,-4.6089 -5.62229,-7.1557 -1.221,-1.8869 -4.23674,-8.0907 -5.6223,-10.2223 -1.26291,-1.943 -2.78351,-3.7077 -4.08894,-5.6223 -3.3485,-4.9111 -3.59414,-5.8529 -6.64453,-10.7335 -3.26545,-5.2247 -6.05471,-11.1746 -10.73348,-15.3335 -2.58604,-2.2987 -6.01571,-4.0542 -8.689,-6.1334 -15.72576,-12.2312 21.20763,13.057 -19.42248,-13.8002 -50.09385,-33.1129 5.43954,4.2363 -21.46694,-14.8224 -16.92727,-11.9902 4.07783,3.4 -10.22236,-6.1334 -1.10717,-0.7382 -1.94739,-1.8361 -3.06671,-2.5556 -1.75071,-1.9643 -4.57595,-1.7739 -6.64453,-3.0667 -0.61296,-0.3831 -0.98937,-1.0574 -1.53335,-1.5334 -4.29999,-3.7625 -7.39462,-6.2683 -11.75571,-9.7112 -2.86179,-2.2593 -5.84185,-4.3668 -8.689,-6.6446 -1.42422,-1.1393 -5.05142,-4.4274 -6.64453,-5.6223 -1.66373,-1.2478 -3.51354,-2.2464 -5.11118,-3.5778 -3.30183,-2.7515 -5.66282,-6.1739 -8.689,-9.2001 -3.32336,-3.3234 -6.899,-6.3879 -10.22236,-9.7112 -4.84657,-4.8466 -1.19224,-2.1956 -5.6223,-6.1335 -0.63669,-0.5659 -1.44211,-0.9309 -2.04447,-1.5333 -2.25253,-2.2525 -4.10774,-5.1909 -6.13341,-7.6668 -2.76698,-3.3818 -5.87339,-6.3593 -8.689,-9.7112 -2.2591,-2.6894 -4.33165,-5.5346 -6.64453,-8.1779 -3.53822,-4.0437 -7.57267,-7.8215 -11.24459,-11.7557 -2.6304,-2.8183 -5.93716,-5.0409 -8.17789,-8.1779 -1.46212,-2.047 -2.23752,-4.5158 -3.57782,-6.6445 -5.17106,-8.2129 -5.06256,-5.8994 -9.71124,-14.3113 -15.75664,-28.512 -0.048,-0.6692 -8.689,-18.9114 -0.52594,-1.1103 -1.59918,-1.9216 -2.04448,-3.0667 -2.62264,-6.7439 -2.04447,-14.4144 -2.04447,-21.4669 0,-5.5439 -0.19421,-9.8672 0.51112,-15.3336 1.36399,-10.5708 2.7698,-12.6511 6.64453,-24.5336 0.83514,-2.5611 1.57059,-5.1595 2.55559,-7.6668 0.89196,-2.2704 2.14634,-4.3854 3.06671,-6.6445 9.16001,-22.4837 -4.36434,7.9452 6.13341,-13.8002 2.46105,-5.0979 4.20609,-10.4667 7.15565,-15.3335 2.03292,-3.3543 4.87631,-6.2102 6.64453,-9.7113 6.7699,-13.4044 12.43221,-27.3421 18.91136,-40.8894 1.02121,-2.1352 2.38522,-4.0889 3.57782,-6.1334 1.36299,-2.726 2.83455,-5.4003 4.08895,-8.1779 1.13287,-2.5085 1.83577,-5.2049 3.0667,-7.6668 3.68494,-7.3698 4.24176,-5.99 8.68901,-12.7779 34.84265,-55.26766 -1.17629,0.5633 25.04477,-37.31159 5.94419,-8.58606 11.48623,-17.4449 17.378,-26.06701 1.09597,-1.60385 2.47732,-2.99932 3.57783,-4.60006 1.70737,-1.92337 2.18246,-4.55149 3.57782,-6.64453 0.40096,-0.60143 1.09966,-0.95509 1.53336,-1.53335 2.37158,-3.16212 3.76182,-7.06024 6.13341,-10.22236 0.4337,-0.57826 1.14528,-0.92353 1.53335,-1.53335 0.81812,-1.28562 1.36298,-2.72596 2.04447,-4.08894 0.34075,-2.04447 -0.0163,-4.33967 1.02224,-6.13342 4.76257,-8.22626 5.75572,1.04484 3.57782,-7.66676"
       id="path12" />
    <path
       style="fill:#1f3f6b;fill-opacity:1"
       d="m 793.20473,1538.9406 c 3.92417,7.8902 8.70377,10.8429 16.99467,15.5891 1.89496,1.0848 3.96374,2.0548 6.13341,2.3 6.36724,0.7198 10.08736,-0.3959 14.69464,-4.6 1.66129,-1.5159 2.84795,-3.4912 4.08894,-5.3668 2.51131,-3.7954 4.77978,-7.7462 7.15565,-11.6279 2.70288,-4.4159 7.89115,-12.2679 -0.12778,-15.078 -3.45643,-1.2112 -7.21543,-1.3118 -10.86125,-1.6611 -5.44768,-0.5219 -16.54783,-0.3833 -21.85029,-0.3833 -5.68174,0 -10.03313,-0.084 -15.71687,0.2555 -0.22896,0.014 -0.4192,0.1897 -0.6389,0.2556 -0.85505,0.2565 -1.68192,0.5483 -2.55558,0.7667 -1.31927,0.3298 -3.39925,0.7319 -4.60006,1.2778 -0.2442,0.111 -0.39907,0.8461 -0.51112,1.0222 -0.22867,0.3593 -0.64967,0.6127 -0.76668,1.0222 -0.15211,0.5324 0,1.1075 0,1.6612 0,2.2481 0.0597,1.743 1.15002,3.7056 0.15753,0.2835 0.23156,0.6077 0.38333,0.8944 0.23241,0.439 0.58052,0.8173 0.76668,1.2778 0.62605,1.5487 1.07462,3.1638 1.66113,4.7279 0.18071,0.4818 0.3626,0.9713 0.6389,1.4055 0.32501,0.5108 0.82501,0.8949 1.15002,1.4056 0.2763,0.4342 0.40873,0.9453 0.63889,1.4056 0.68931,1.3786 1.62523,2.2493 2.81115,3.3222 0.59158,0.5353 0.60037,0.5112 1.15002,0.5112"
       id="path13" />
    <path
       style="fill:#1f3f6b;fill-opacity:1"
       d="m 795.50476,1576.8911 c 0.29816,1.4056 0.40574,2.8656 0.89446,4.2167 0.24925,0.6891 0.80285,1.2309 1.27779,1.789 1.23116,1.4466 2.46131,2.903 3.83339,4.2167 0.25607,0.2451 2.74379,2.4407 3.83338,2.0444 0.87544,-0.3183 1.79838,-1.2745 2.30003,-1.9166 0.66182,-0.8472 1.2076,-1.7791 1.78891,-2.6834 0.1857,-0.2889 0.43247,-0.5602 0.51112,-0.8945 0.0918,-0.3903 0.0772,-2.1815 0,-2.6833 -0.27413,-1.7819 -3.17887,-3.1171 -4.3445,-3.9612 -0.46608,-0.3375 -2.54358,-2.2976 -3.19449,-2.4278 -0.0679,-0.014 -0.829,-0.022 -0.89445,0 -0.0404,0.014 0.0301,0.098 0,0.1278 -0.15889,0.1589 -0.32128,0.1277 -0.51112,0.1277"
       id="path14" />
    <path
       style="fill:#1f3f6b;fill-opacity:1"
       d="m 805.08822,1595.6747 c 0.25556,0.1278 0.51112,0.2556 0.76668,0.3833 0.0852,0.085 0.15225,0.1936 0.25556,0.2556 0.1155,0.069 0.26784,0.059 0.38334,0.1278 0.2066,0.1239 0.31836,0.3665 0.51111,0.5111 0.10776,0.081 0.2881,0.033 0.38334,0.1278 0.0301,0.03 -0.019,0.09 0,0.1278 0.2659,0.5317 -0.009,-0.1366 0.25556,0.1277 0.26438,0.2644 -0.40401,-0.01 0.12778,0.2556 0.0381,0.019 0.0977,-0.03 0.12778,0 0.0602,0.06 -0.0602,0.1953 0,0.2555 0.0301,0.03 0.0977,-0.03 0.12778,0 0.35979,0.01 0.0325,0.2881 0.12778,0.3834 0.0301,0.03 0.0923,-0.024 0.12778,0 0.10024,0.067 0.15532,0.1887 0.25556,0.2555 0.12788,0.085 1.76282,0.044 1.91669,0 0.3119,-0.089 0.60432,-0.2382 0.89446,-0.3833 0.19914,-0.1 0.2839,-0.4566 0.38333,-0.6389 1.48299,-2.7188 0.96859,-3.5909 -0.25555,-6.389 -0.14587,-0.3334 -0.19179,-0.7128 -0.38334,-1.0222 -0.33444,-0.5402 -1.41396,-1.9539 -2.17225,-2.4278 -0.75332,-0.4708 -0.42755,-0.086 -1.02224,-0.3833 -0.0539,-0.027 -0.0852,-0.085 -0.12778,-0.1278 -0.21296,-0.085 -0.41835,-0.1926 -0.6389,-0.2556 -0.56549,-0.1616 -1.3491,-0.1991 -1.78891,-0.6389"
       id="path15" />
    <path
       style="fill:#1f3f6b;fill-opacity:1"
       d="m 826.93851,1446.9394 c 0.37063,0.3973 0.19655,0.9573 0.38334,1.4056 0.11813,0.2835 0.40086,0.48 0.51111,0.7667 0.21624,0.5622 0.0577,1.22 0.25556,1.7889 0.92532,2.6603 1.8983,5.305 2.93893,7.9223 0.77499,1.9492 1.79329,4.0035 3.57783,5.239 0.92973,0.6436 3.40262,-0.112 4.21672,-0.3834 0.62851,-0.2095 1.66945,-1.1319 1.78891,-1.7889 0.14824,-0.8153 0,-2.7476 0,-3.45 0,-0.8511 0.1765,-1.872 -0.12778,-2.6834 -0.34973,-0.9326 -2.06824,-2.9242 -2.68337,-3.5778 -0.32048,-0.3405 -1.53726,-1.5554 -1.91669,-1.7889 -0.18497,-0.1139 -0.43286,-0.059 -0.6389,-0.1278 -0.31065,-0.1036 -0.66256,-0.4662 -1.02223,-0.5111 -0.25359,-0.032 -0.51112,0 -0.76668,0"
       id="path16" />
    <path
       style="fill:#1f3f6b;fill-opacity:1"
       d="m 665.54546,1461.2003 c 1.24355,-0.1671 2.72672,1.0416 3.97556,0.5421 0.62895,-0.2516 0.82218,-0.7669 1.26495,-1.265 0.22638,-0.2547 0.52478,-0.4455 0.72283,-0.7228 0.11072,-0.155 0.0955,-0.3718 0.18071,-0.5421 0.0971,-0.1943 0.28516,-0.3388 0.36142,-0.5422 0.59352,-1.5827 0.72283,-3.381 0.72283,-5.0598 0,-1.0842 0.12668,-2.1759 0,-3.2527 -0.0379,-0.3222 -0.26821,-0.5928 -0.36142,-0.9035 -0.0883,-0.2942 -0.10621,-0.6056 -0.18071,-0.9036 -0.1664,-0.6656 -0.52245,-0.7568 -0.90353,-1.2649 -0.25505,-0.3401 -0.66235,-0.9155 -1.08425,-1.0843 -0.16778,-0.067 -0.36492,0.035 -0.54212,0 -0.13208,-0.026 -0.24094,-0.1204 -0.36142,-0.1807 -0.30117,-0.06 -0.59876,-0.1426 -0.90353,-0.1807 -0.64485,-0.081 -1.33686,0 -1.98778,0 -0.41028,0 -1.27246,-0.1769 -1.62637,0 -0.0762,0.038 -0.0999,0.1538 -0.18071,0.1807 -0.11429,0.038 -0.27227,-0.081 -0.36141,0 -0.59964,0.5452 -1.07769,1.2107 -1.62637,1.8071 -0.8368,0.9096 -1.72945,1.7689 -2.5299,2.7106 -0.37455,0.4407 -1.15613,1.8564 -0.90354,2.5299 0.34923,0.9313 1.25515,2.0634 1.80707,2.8913 0.63595,0.954 0.81015,0.9472 1.80708,1.4457 0.47134,0.2357 0.67489,0.6306 1.08424,0.9035 0.16287,0.3588 0.50069,0.07 0.72283,0.1807 0.15239,0.076 0.21966,0.2669 0.36142,0.3615 0.15388,0.1025 0.56894,0.2588 0.72283,0.3614"
       id="path17" />
    <path
       style="fill:#1f3f6b;fill-opacity:1"
       d="m 525.13579,1321.5134 c 2.34416,0.1949 4.26135,0.8116 6.68617,0.5421 0.56795,-0.063 1.07691,-0.3851 1.62637,-0.5421 0.29533,-0.084 0.64016,-0.023 0.90354,-0.1807 0.83064,-0.4984 1.55339,-1.642 1.80707,-2.5299 -0.30712,-0.4891 0.27623,-0.4673 0.36142,-0.7228 0.51093,-1.5328 0.15828,-3.4783 -0.54213,-4.8791 -0.19425,-0.3885 -0.50732,-0.7071 -0.72283,-1.0843 -0.55773,-0.976 -0.97047,-2.1538 -1.62636,-3.072 -0.59417,-0.8318 -1.44566,-1.4457 -2.16849,-2.1685 -0.30068,-0.3007 -0.80627,-0.9008 -1.26495,-1.0842 -0.24762,-0.099 -0.81938,0 -1.08425,0 -2.144,0 -4.03033,0.2788 -5.96334,1.0842 -0.59886,0.2495 -1.17769,0.5655 -1.80708,0.7228 -0.11687,0.029 -0.25366,-0.054 -0.36141,0 -0.0539,0.027 0.0426,0.1382 0,0.1807 -0.0952,0.095 -0.25367,0.1 -0.36142,0.1808 -0.58098,0.4357 -0.18693,0.2255 -0.54212,0.7228 -0.61584,0.8622 -0.88369,0.6612 -0.72283,1.6263 0.0579,0.3474 0.50799,2.1003 0.72283,2.53 0.19425,0.3885 0.5169,0.7017 0.72283,1.0842 0.21749,0.4039 0.33697,0.8546 0.54212,1.2649 0.46594,0.9319 1.225,2.0183 1.80708,2.8914 0.0802,0.1202 1.38881,1.2873 1.62636,1.4456 0.0828,0.055 1.30215,0.6237 1.26495,0.7229 -0.18194,0.4851 -1.33467,0.9775 -0.90353,1.2649 1.49674,0.9978 1.44566,-1.6767 1.44566,-0.7228"
       id="path18" />
    <path
       style="fill:#1f3f6b;fill-opacity:1"
       d="m 382.28657,1178.4835 c 0.23595,1.6516 -0.0942,-0.01 0.27106,0.9035 0.0224,0.056 -0.0602,0.1807 0,0.1807 0.98813,0 1.91043,-1.1999 1.71672,-2.1685 -0.008,-0.042 -0.0684,-0.054 -0.0904,-0.09 -0.36816,-0.6136 -0.64263,-0.9939 -1.26495,-0.9939 -0.0602,0 -0.13811,-0.043 -0.18071,0 -0.0448,0.045 0,0.3883 0,0.4518 0,0.3011 0,0.6023 0,0.9035"
       id="path19" />
    <path
       style="fill:#1f3f6b;fill-opacity:1"
       d="m 666.38363,977.82911 c -0.0532,0.011 -0.17037,-0.021 -0.15972,0.032 0.0107,0.053 0.11581,-0.064 0.15972,-0.032 0.0932,0.068 0.1011,0.2164 0.19167,0.2875 0.21191,0.1665 1.02601,0.082 1.24585,0 0.0423,-0.016 0.0545,-0.077 0.0958,-0.096 0.34749,-0.1544 0.0537,0.081 0.31945,-0.096 0.12314,-0.082 0.21595,-0.184 0.31944,-0.2875 0.0319,-0.032 0.0597,-0.069 0.0958,-0.096 0.009,-0.01 0.026,0.01 0.0319,0 0.0187,-0.028 0.0213,-0.064 0.0319,-0.096 0.0639,-0.075 0.13721,-0.1419 0.19167,-0.2236 0.0318,-0.048 0.0344,-0.1106 0.0639,-0.1598 0.0924,-0.1539 0.23153,-0.2889 0.31945,-0.4472 0.0278,-0.05 0.0364,-0.1094 0.0639,-0.1597 0.0368,-0.067 0.096,-0.1218 0.12777,-0.1917 0.0225,-0.049 0.0219,-0.1063 0.032,-0.1597 0.0481,-0.2565 0.0639,-0.4801 0.0639,-0.7347 0,-0.2387 0.0561,-0.5577 -0.0958,-0.7667 -0.2309,-0.3175 -0.57473,-0.3757 -0.9264,-0.4792 -0.56299,-0.1656 -1.10285,-0.2387 -1.69307,-0.2555 -0.13413,0 -0.68669,-0.072 -0.83057,0.096 -0.15573,0.1817 -0.21147,0.5216 -0.25556,0.7347 -0.14765,0.7137 -0.0958,0.5588 -0.0958,1.4375 0,0.2058 -0.0381,0.4932 0,0.7028 0.0333,0.183 0.0913,0.3607 0.12778,0.5431"
       id="path20" />
    <path
       style="fill:#1f3f6b;fill-opacity:1"
       d="m 667.56559,978.05271 c 0.43603,0.043 0.86087,0.1408 1.30974,0.096 0.33186,-0.033 0.67051,-0.3191 0.89446,-0.5431 0.20752,-0.2075 0.43835,-0.5194 0.54306,-0.7986 0.0264,-0.071 0.0121,-0.151 0.0319,-0.2236 0.0125,-0.046 0.0502,-0.082 0.0639,-0.1278 0.0397,-0.1323 0.0402,-0.3155 0.0319,-0.4472 -0.002,-0.026 -0.0183,-0.2774 -0.0639,-0.3514 -0.0681,-0.1107 -0.15151,-0.2113 -0.22361,-0.3195 -0.25941,-0.3891 0.13369,0.1202 -0.31945,-0.3833 -0.0511,-0.057 -0.0599,-0.119 -0.12778,-0.1597 -0.27723,-0.1664 -0.77579,-0.093 -1.05418,0 -0.22701,0.076 -0.44769,0.1691 -0.67084,0.2555 -0.10696,0.041 -0.21207,0.087 -0.31945,0.1278 -0.0631,0.024 -0.13485,0.028 -0.19167,0.064 -0.0694,0.044 -0.17984,0.195 -0.25556,0.2555 -0.0741,0.059 -0.20247,0.1499 -0.22361,0.2556 -0.0464,0.2318 -0.0656,0.4683 -0.0958,0.7028 -0.0358,0.2772 -0.12489,0.6737 0.0958,0.8945"
       id="path21" />
    <path
       style="fill:#1f3f6b;fill-opacity:1"
       d="m 521.34093,461.16535 c 0.0301,0.12048 -0.0301,0.39154 0.0904,0.36142 0.12047,-0.0301 -0.21454,-0.36142 -0.0904,-0.36142 0.26938,0 0.47667,0.25201 0.72283,0.36142 0.20419,0.0908 1.28049,-0.28142 1.53601,-0.45177 0.46101,-0.30733 0.42908,-1.46663 0.45177,-1.80707 0.0134,-0.20099 0.0721,-0.63306 0,-0.81319 -0.05,-0.12505 -0.0999,-0.25366 -0.1807,-0.36141 -0.0192,-0.0256 -0.36963,-0.2163 -0.45177,-0.27106 -0.0354,-0.0236 -0.0602,-0.0602 -0.0904,-0.0904 -0.15059,-0.12047 -0.28319,-0.26776 -0.45177,-0.36141 -0.19166,-0.10648 -0.43636,-0.0827 -0.63247,-0.18071 -0.33785,-0.16892 -0.61839,-0.33912 -0.99389,-0.45177 -0.1471,-0.0441 -0.30798,-0.0364 -0.45177,-0.0904 -0.33938,-0.12727 -0.64706,-0.40339 -0.99389,-0.54212 -0.20483,-0.0819 -1.51132,-0.31764 -1.71672,-0.18071 -0.41259,0.27506 -0.63899,0.99849 -0.72283,1.44566 -0.12369,0.65967 -0.32682,1.57698 -0.18071,2.25884 0.1668,0.77837 0.72795,1.9929 1.26495,2.52991 0.10649,0.10648 0.24708,0.17305 0.36142,0.27106 0.29661,0.25424 0.33349,0.45177 0.72283,0.45177"
       id="path22" />
    <path
       style="fill:#1f3f6b;fill-opacity:1"
       d="m 1027.8639,466.94799 c 1.5837,-7.79041 -1.9264,-16.87056 0,-24.57621 1.7374,-6.94986 5.1698,-13.3776 7.2283,-20.23923 0.8423,-2.80758 0.6744,-5.84604 1.4456,-8.67396 2.5013,-9.17142 3.7023,-6.78748 8.674,-15.90225 1.2426,-2.27817 1.6487,-4.95013 2.8913,-7.2283 4.7778,-8.75925 12.5781,-15.99051 17.3479,-24.57621 0.9649,-1.73683 0.7078,-3.93787 1.4457,-5.78264 1.0435,-2.60888 2.8913,-4.81886 4.337,-7.22829 1.0518,-1.75312 3.2029,-2.63588 4.3369,-4.33698 1.1955,-1.79312 1.5451,-4.09982 2.8914,-5.78264 1.5051,-1.88145 4.0789,-2.63325 5.7826,-4.33698 12.604,-12.60401 21.8719,-19.38225 36.1415,-30.35884 1.6205,-1.24654 2.5838,-3.28511 4.337,-4.33698 0.8264,-0.49586 2.0293,0.43101 2.8913,0 6.2161,-3.10808 11.429,-7.92287 17.3479,-11.56528 21.8194,-13.42731 43.7041,-27.19707 63.609,-43.36978 3.4481,-2.80158 5.3008,-7.2283 8.674,-10.11962 4.6855,-4.01613 10.4149,-6.9018 14.4566,-11.56527 2.4035,-2.77333 2.4232,-6.98813 4.3369,-10.11962 3.4178,-5.59272 7.6327,-10.65876 11.5653,-15.90225 4.1415,-5.52199 9.469,-9.99907 13.0109,-15.90226 2.0496,-3.41586 3.1156,-7.00802 5.7827,-10.11961 1.774,-2.06971 4.1982,-3.56443 5.7826,-5.78264 0.8857,-1.24001 0.7642,-2.974 1.4457,-4.33698 2.9417,-5.88344 13.6664,-18.00337 18.7936,-23.13055 1.7037,-1.70372 4.0789,-2.63325 5.7826,-4.33698 6.2581,-6.25815 2.7424,-6.4534 10.1196,-13.01093 1.1876,-1.05566 10.2632,-8.1442 13.0109,-7.2283 1.6483,0.54944 1.9276,2.89132 2.8914,4.33698 1.9275,2.89132 3.8204,5.80607 5.7826,8.67396 4.3025,6.28826 9.4623,12.05112 13.0109,18.79357 1.3652,2.59387 0.4598,5.91352 1.4457,8.67396 1.4496,4.05902 4.2354,7.54244 5.7826,11.56527 1.7134,4.45485 2.5454,19.60936 2.8913,21.68489 2.0628,12.37673 4.1604,11.5978 5.7827,24.57621 0.4184,3.34716 -0.5129,6.78564 0,10.11962 0.4634,3.01228 2.2527,5.69389 2.8913,8.67395 1.4279,6.66363 2.438,13.43943 2.8913,20.23924 0.7711,11.56559 -1.2547,14.54524 1.4457,26.02187 0.943,4.00779 2.9601,7.68507 4.337,11.56527 4.9823,14.04104 11.6649,35.83153 18.7935,50.59808 104.5061,216.47689 -29.3956,-63.12822 62.1634,119.98973 2.5224,5.04487 3.2602,10.85739 5.7826,15.90226 1.3799,2.75982 4.4028,4.46847 5.7827,7.22829 9.1801,18.36033 -0.053,2.68065 1.4456,8.67396 1.0253,4.10091 3.3118,7.46437 4.337,11.56528 1.5516,6.20637 1.7921,12.85552 4.337,18.79357 2.3822,5.55861 4.1014,6.84642 5.7826,13.01093 1.5425,5.65584 1.1673,11.74476 2.8913,17.34792 9.4881,22.1388 0.2816,-1.76504 5.7827,20.23923 2.0558,8.22327 8.0638,14.90728 10.1196,23.13055 1.1219,4.4876 0,11.20645 0,15.90225 0,14.93848 0,29.87696 0,44.81544 0,29.60791 4.2386,59.96045 0,89.63089 -1.1839,8.28693 -5.4406,16.53146 -7.2283,24.57621 -2.6342,11.85399 -0.5281,24.32522 -2.8913,36.14148 -1.973,9.86471 -9.9104,16.24151 -14.4566,24.57621 -1.4594,2.67558 -1.3233,6.06056 -2.8913,8.67396 -1.4025,2.33749 -3.8551,3.85509 -5.7827,5.78264 -3.8551,6.74641 -7.7687,13.4597 -11.5652,20.23923 -2.9502,5.26821 -4.4045,11.63273 -8.674,15.90225 -2.4807,2.48067 -7.0893,1.12365 -10.1196,2.89132 -8.5896,5.01057 -10.8895,16.03908 -18.7936,21.68489 -1.7536,1.25261 -4.029,1.63872 -5.7826,2.89132 -1.6637,1.18833 -2.5839,3.28511 -4.337,4.33698 -0.8264,0.49586 -2.166,-0.63465 -2.8913,0 -3.3436,2.92559 -5.3534,7.168 -8.674,10.11962 -30.7658,27.3474 -7.3963,5.88954 -23.1305,15.90225 -6.0983,3.8807 -11.0293,9.50056 -17.348,13.01094 -1.7368,0.9649 -4.0055,0.5571 -5.7826,1.44566 -9.4137,4.70684 2.8818,1.44883 -5.7826,4.33697 -6.2424,2.08081 -17.5619,-0.43839 -24.5762,0 -12.6373,0.78983 -14.1987,1.35969 -23.1306,4.33698 -5.4748,1.82495 -14.2472,0 -20.2392,0 -11.0016,0 -10.5683,6.23132 -17.3479,13.01092 -3.2056,3.2056 -7.1178,5.451 -8.674,10.1196 -0.3048,0.9143 0.431,2.0293 0,2.8914 -0.1526,0.3052 -15.5179,0.1048 -15.9022,0 -2.6837,-0.732 -6.055,-7.1026 -8.674,-8.674 -5.9576,-3.5746 -10.1196,-3.574 -10.1196,-11.5653 0,-7.93465 -1.5481,-41.61687 0,-46.26108 0.2155,-0.64652 1.2301,-0.79914 1.4456,-1.44566 0.762,-2.28579 -0.4725,-4.86566 0,-7.2283 0.6699,-3.34911 2.2215,-6.7705 2.8914,-10.11961 1.138,-5.69 0.625,-11.60356 1.4456,-17.34792 1.2395,-8.67648 4.9584,-16.25301 7.2283,-24.57621 1.3862,-5.08271 1.7515,-13.85414 2.8913,-18.79357 4.714,-20.42703 1.2331,3.9543 5.7827,-18.79357 2.9875,-14.93758 5.6137,-30.17139 10.1196,-44.81544 8.3062,-26.99525 21.1538,-52.96563 26.0219,-80.95693 5.1531,-29.63074 2.8913,-61.22152 2.8913,-91.07655 0,-9.34736 1.9163,-23.83651 -1.4457,-33.25016 -0.9133,-2.55728 -12.9023,-30.25029 -14.4566,-31.80451 -10.7746,-10.77466 -26.1314,-21.55128 -41.9241,-23.13055 -15.3121,-1.53121 -44.4542,3.38318 -57.8264,-1.44566 -123.3589,-44.54627 -12.4096,-3.26071 -57.8263,-23.13055 -3.7721,-1.65027 -7.9219,-2.41939 -11.5653,-4.33698 -37.9499,-19.97363 4.5268,-1.94799 -30.3589,-15.90225 -4.8188,-1.92755 -9.6377,-3.85509 -14.4566,-5.78264 -5.3007,-1.44566 -10.7387,-2.45932 -15.9022,-4.33698 -5.4721,-1.98985 -10.6943,-4.62432 -15.9023,-7.2283 -0.6095,-0.30477 -0.7991,-1.23015 -1.4456,-1.44566 -1.3715,-0.45715 -3.3148,1.02224 -4.337,0 -0.3408,-0.34074 0,-0.96377 0,-1.44565"
       id="path23" />
    <path
       style="fill:#1f3f6b;fill-opacity:1"
       d="m 1219.7752,1036.5378 c -0.6024,0.8433 -1.5971,1.5151 -1.8071,2.5299 -0.5375,2.5981 -0.2967,5.2988 -0.3614,7.9511 -0.1322,5.4196 0,10.8425 0,16.2637 0,1.8058 -0.279,20.6197 0.3614,26.3833 0.3106,2.7952 0.9723,5.5402 1.4457,8.3125 3.7693,22.0778 -1.1329,-7.6954 1.4456,12.2881 0.2358,1.8277 0.8807,3.5897 1.0843,5.4212 0.6751,6.0763 -0.7524,2.5212 0.3614,8.3126 0.3532,1.8366 0.9799,3.6099 1.4456,5.4212 0.6185,2.4053 1.0502,4.8629 1.8071,7.2283 0.2141,0.6691 0.8913,1.1316 1.0843,1.8071 0.5906,2.0671 0.057,3.1944 0.7228,5.0598 0.399,1.1174 1.029,2.1418 1.4456,3.2527 0.8535,2.2758 0.6378,2.4658 1.0843,4.6984 0.172,0.86 0.5988,1.6617 0.7228,2.5299 0.021,0.1482 -0.01,1.8136 0,1.8071 6.1837,-4.417 -2.1898,0.2359 7.2283,-6.1441 2.0538,-1.3912 4.3857,-2.3256 6.5055,-3.6141 4.0267,-2.4476 7.9457,-5.0684 11.9267,-7.5897 21.4857,-13.6076 34.4042,-20.948 53.8508,-35.7801 6.9419,-5.2947 13.4847,-11.0933 20.2392,-16.6251 7.2202,-5.913 14.6615,-11.5638 21.6849,-17.7093 5.5149,-4.8255 10.5562,-10.1675 15.9023,-15.1794 4.2921,-4.0239 8.9284,-7.6902 13.0109,-11.9267 2.3242,-2.4119 3.8405,-5.5196 6.144,-7.9511 2.0581,-2.1724 4.7509,-3.6667 6.8669,-5.7827 1.6364,-1.6364 2.8352,-3.6605 4.337,-5.4212 3.8658,-4.5323 9.5206,-9.2831 12.2881,-14.818 0.4603,-0.9207 0.6583,-1.9543 1.0843,-2.8913 0.3238,-0.7125 2.158,-3.2737 1.807,-3.9756 -0.054,-0.1077 -0.2495,0.045 -0.3614,0 -0.5002,-0.2001 -0.9091,-0.67399 -1.4456,-0.72279 -3.4814,-0.3165 -6.9857,-0.3108 -10.4811,-0.3614 -12.1663,-0.1764 -24.3366,-0.183 -36.5029,0 -28.631,0.4305 -21.4453,-0.2851 -47.7067,4.33689 -7.8425,1.3803 -15.801,2.2736 -23.492,4.337 -13.6612,3.6652 -33.7341,9.8195 -48.0682,16.9865 -6.8934,3.4467 -12.3802,8.383 -18.4321,13.011 -1.2256,0.9371 -2.4428,1.8872 -3.6142,2.8913 -0.9216,0.7899 -1.4459,1.6265 -2.5299,2.1685"
       id="path24" />
    <path
       style="fill:#1f3f6b;fill-opacity:1"
       d="m 1222.6715,134.26116 c -0.6038,1.48773 -0.8693,2.89654 -0.5111,4.47229 0.3398,1.49539 1.1339,2.52193 2.0444,3.7056 0.1663,0.21617 0.3337,0.43183 0.5112,0.6389 0.078,0.0915 0.1397,0.22246 0.2555,0.25556 1.1396,0.32558 1.6843,0.25555 2.8112,0.25555 2.6859,0 4.1004,0.30132 6.1334,-2.04447 0.4233,-0.48846 0.6389,-1.29204 0.6389,-1.91669 0,-0.5185 0.094,-1.19467 -0.2556,-1.66113 -0.8176,-1.09018 -2.2838,-1.62345 -3.45,-2.17225 -0.2586,-0.12166 -0.493,-0.30124 -0.7667,-0.38334 -0.4707,-0.1412 -1.6757,0 -2.1723,0 -1.6611,0 -3.3222,0 -4.9834,0"
       id="path25" />
    <path
       style="fill:#1f3f6b;fill-opacity:1"
       d="m 1118.9146,244.53483 c 1.9539,0.91778 3.6806,1.04015 5.8778,1.15001 0.5956,0.0298 1.1952,-0.0557 1.7889,0 0.7739,0.0725 1.5257,0.31696 2.3001,0.38334 0.7214,0.0618 1.4481,0 2.1722,0 0.5537,0 1.1139,0.0842 1.6612,0 2.5156,-0.38702 6.2642,-2.95105 6.9,-5.49451 0.7981,-3.19233 -1.3658,-7.40337 -3.9611,-9.20012 -0.2525,-0.17483 -0.4815,-0.39705 -0.7667,-0.51112 -2.5478,-1.01913 -3.6997,-0.51171 -6.2612,-0.25556 -4.004,0.4004 0.3156,-0.25415 -1.7889,0.51112 -0.283,0.10292 -0.6251,-0.007 -0.8945,0.12778 -0.5181,0.25908 -0.9143,0.71519 -1.4055,1.02223 -1.1024,0.68899 -0.2546,-0.25693 -1.0223,0.76668"
       id="path26" />
    <path
       style="fill:#1f3f6b;fill-opacity:1"
       d="m 1021.8022,344.71392 c 2.7487,1.60684 5.8216,2.03029 8.9446,2.17225 0.7658,0.0348 1.5363,0.0674 2.3,0 1.4327,-0.12642 3.2091,-0.66091 4.4723,-1.2778 1.9763,-0.9652 3.9542,-2.02483 4.7278,-4.21672 0.1649,-0.46728 0.1472,-1.8914 0.1278,-2.30003 -0.117,-2.4566 -1.0806,-5.09115 -3.3223,-6.38897 -0.3039,-0.17598 -0.6763,-0.19452 -1.0222,-0.25556 -1.1034,-0.19472 -2.2101,-0.37548 -3.3223,-0.51112 -0.3905,-0.0476 -4.247,-0.32414 -4.9834,-0.12778 -0.3318,0.0885 -0.5706,0.39683 -0.8944,0.51112 -0.5359,0.18913 -1.1529,0.1292 -1.6612,0.38334 -0.7844,0.39222 -1.4904,0.94047 -2.3,1.27779 -0.5851,0.2438 -1.0811,0.11765 -1.4056,0.76668"
       id="path27" />
    <path
       style="fill:#1f3f6b;fill-opacity:1"
       d="m 921.4953,443.48743 c 0.55371,0.0852 1.11763,0.11968 1.66113,0.25556 0.3147,0.0787 0.57638,0.31972 0.89446,0.38334 0.54456,0.10891 1.10954,0.19225 1.66113,0.12777 5.06316,-0.59179 7.07964,-0.4859 10.86125,-2.4278 0.7149,-0.36711 1.44785,-0.73938 2.04448,-1.2778 2.14112,-1.93223 4.30672,-4.52451 5.62229,-7.15565 0.21798,-0.43595 0.68312,-1.24576 0.76668,-1.78891 0.0443,-0.28761 0.20215,-1.97979 -0.12778,-2.17225 -0.93799,-0.54716 -1.91492,-1.04416 -2.93893,-1.40557 -0.44363,-0.15658 -0.93552,-0.1082 -1.40557,-0.12778 -2.14284,-0.0893 -1.43215,-0.05 -3.70561,0.63889 -0.61647,0.18681 -2.93574,0.83146 -3.7056,1.15002 -1.82789,0.75637 -2.18544,1.0622 -3.83338,1.91669 -0.59186,0.30689 -1.16756,0.65282 -1.78892,0.89446 -0.15878,0.0618 -0.34074,0 -0.51111,0 -0.70174,0 -0.97134,0.28154 -1.2778,0.89445"
       id="path28" />
    <path
       style="fill:#1f3f6b;fill-opacity:1"
       d="m 826.68295,542.77206 c 6.68689,-0.1486 3.83291,-0.12778 8.56122,-0.12778 0.46853,0 0.9487,0.10383 1.40558,0 1.59602,-0.36273 4.6198,-2.57882 5.11117,-4.21672 0.27613,-0.92042 0.42724,-1.8738 0.6389,-2.81115 0.0865,-0.38305 0.25556,-0.75733 0.25556,-1.15001 0,-0.8415 -0.56993,-1.84773 -1.15001,-2.42781 -0.52719,-0.52719 -1.9083,-0.39875 -2.55559,-0.38334 -1.40582,0.0335 -2.81722,-0.009 -4.21673,0.12778 -0.82877,0.0812 -3.97853,0.96269 -4.72783,1.15001 -1.2815,0.32038 -2.75464,0.54675 -3.96117,1.15002 -1.41607,0.70803 -2.98299,1.82077 -3.83338,3.19448 -0.27089,0.4376 -0.4277,0.93625 -0.6389,1.40558 -0.7376,1.63912 -1.01898,3.21725 -0.76668,4.9834"
       id="path29" />
    <path
       style="fill:#1f3f6b;fill-opacity:1"
       d="m 926.60648,832.19251 c -0.17037,0.21296 -0.38915,0.39496 -0.51112,0.6389 -0.18913,0.37826 -0.22217,1.95586 -0.12778,2.4278 0.0661,0.33042 0.29337,0.75006 0.51112,1.02224 0.14544,0.1818 0.85609,0.79952 1.02223,0.89446 0.72343,0.41338 3.87531,-0.11002 3.96117,-0.12778 1.06767,-0.2209 2.11104,-1.59993 2.81114,-2.30003 2.7733,-2.7733 -0.0874,0.0157 1.2778,-0.89446 0.0354,-0.0236 -0.0211,-0.0908 0,-0.12778 0.7872,-1.37761 1.02223,-1.53159 1.02223,-3.19448 0,-0.25556 0.0873,-0.52651 0,-0.76668 -0.25194,-0.69286 -2.21556,-1.87289 -2.30003,-1.91669 -1.26495,-0.6559 -2.44196,-0.59631 -3.83338,-0.51112 -1.3664,0.0837 -2.74112,0.14372 -4.08894,0.38334 -0.5841,0.10384 -1.09832,0.45129 -1.66113,0.63889 -0.58834,0.19612 -1.22018,0.26385 -1.78892,0.51112 -0.92918,0.404 -2.06702,1.35045 -2.68336,2.17225"
       id="path30" />
    <path
       style="fill:#1f3f6b;fill-opacity:1"
       d="m 930.48778,837.60716 c 0.15196,0.2024 0.33429,0.31085 0.60695,0.30348 0.0735,-0.002 0.49182,-0.2417 0.51112,-0.25556 0.41391,-0.29716 0.3163,-0.29209 0.6389,-0.71876 0.0592,-0.0783 0.14446,-0.13753 0.19167,-0.22361 0.09,-0.16406 0.14957,-0.57596 0.12778,-0.76668 -0.0129,-0.11308 -0.0156,-0.23236 -0.0639,-0.33542 -0.0824,-0.17585 -0.42464,-0.36296 -0.62293,-0.30348 -0.1151,0.0345 -0.291,0.1792 -0.36736,0.25556 -0.24317,0.24317 -0.38024,0.48141 -0.54307,0.78265 -0.043,0.0796 -0.0952,0.15514 -0.12778,0.23959 -0.11149,0.28905 -0.19853,0.58699 -0.30347,0.87848 -0.0499,0.13856 -0.16839,0.3801 -0.19167,0.54306 -0.0105,0.0738 0,0.14908 0,0.22362 0,0.13101 -0.021,0.29121 0.0479,0.41528 0.0256,0.0461 0.0745,0.0745 0.1118,0.11181"
       id="path31" />
    <path
       style="fill:#1f3f6b;fill-opacity:1"
       d="m 927.46899,836.68076 c 0.0107,0.0692 0.004,0.14342 0.032,0.20764 0.29693,0.68295 0.64892,0.95859 1.34168,1.2778 0.51428,0.23697 1.43762,0.57355 2.01253,0.22361 0.83121,-0.50595 0.17314,-0.15781 0.62292,-0.49514 0.17133,-0.1285 0.34345,-0.25718 0.52709,-0.36737 0.16334,-0.098 0.34358,-0.16492 0.51112,-0.25556 0.15741,-0.0852 0.30755,-0.18319 0.4632,-0.27153 0.0414,-0.0235 0.0941,-0.0302 0.12778,-0.0639 0.0396,-0.0396 0.0319,-0.30415 0.0319,-0.31945 0,-0.79352 -0.94904,-1.01703 -1.58127,-0.97432 -1.52184,0.10283 -1.70838,0.25336 -3.14657,0.70279"
       id="path32" />
    <path
       style="fill:#1f3f6b;fill-opacity:1"
       d="m 1125.988,639.25253 c -1.5032,3.04617 3.2853,2.74353 5.0598,2.34919 0.6877,-0.15283 0.6867,-0.20782 1.3553,-0.54212 0.9279,-0.46393 1.0931,-0.63357 1.6264,-1.53601 0.2471,-0.4181 0.5569,-0.80856 0.7228,-1.26496 0.082,-0.22643 0,-0.48188 0,-0.72283 0,-0.89361 -0.2114,-1.81638 -0.6324,-2.62025 -0.1706,-0.32567 -0.4362,-0.59271 -0.6325,-0.90354 -0.4268,-0.6757 -0.7791,-1.49905 -1.536,-1.89743 -0.543,-0.28576 -1.7401,-0.73088 -2.4396,-0.81318 -0.2991,-0.0352 -0.6028,0.0158 -0.9035,0 -1.3074,-0.0688 -1.5225,-0.12012 -2.801,0.18071 -0.2703,0.0636 -0.5816,0.0274 -0.8132,0.1807 -4.341,2.87361 -4.5428,2.72222 -6.7765,5.42123 -0.3419,0.41311 -0.6722,0.83596 -0.9939,1.26495 -0.3109,0.41453 -0.6631,0.80594 -0.9035,1.26495 -0.099,0.18865 -0.073,0.42025 -0.09,0.63248 -0.064,0.76698 0.3445,1.1791 0.9036,1.62636"
       id="path33" />
    <path
       style="fill:#1f3f6b;fill-opacity:1"
       d="m 525.12345,790.40863 c 0,-538.20704 0.12778,-501.27877 0.12778,-501.27877 l -4.47228,-37.9505 -41.6561,535.14033 z"
       id="path34" />
  </g>
</svg>
